<?xml version="1.0" encoding="UTF-8"?><svg id="_圖層_1" xmlns="http://www.w3.org/2000/svg" viewBox="0 0 215.34 54.92"><defs><style>.cls-1{fill:#fff;}.cls-2{fill:#d03537;fill-rule:evenodd;}</style></defs><path class="cls-2" d="m66.9.42c15.08,0,27.24,12.18,27.24,27.25s-12.15,27.25-27.24,27.25-27.46-12.18-27.46-27.25S51.61.42,66.9.42h0Zm0,15.49c-6.6,0-11.99,5.35-11.99,11.76s5.39,11.77,11.99,11.77,11.76-5.16,11.76-11.77-5.34-11.76-11.76-11.76Z"/><path class="cls-1" d="m171.57,21.47v12.61h-2.05v-13.64h-2.28v13.64h-2.06v-13.64h-2.27v13.64h-2.06v-13.21c0-.63.21-1.04.61-1.25.63-.41,1.25-.41,2.49-.41,1.03,0,1.65.21,2.27.41.41-.21.62-.21,1.03-.41h1.44c1.03,0,1.86.21,2.27.41.43.21.62.82.62,1.44v.41h0Zm4.95,3.94h2.29v-4.98h-2.29v4.98h0Zm4.36-3.94v12.61h-2.06v-7.44h-2.29v7.44h-2.05v-13.02c0-.82.19-1.24.61-1.44.62-.41,1.44-.41,2.5-.41,1.24,0,2.04.21,2.47.41.62.21.82.62.82,1.44v.41h0Zm2.89,12.61v-14.87h2.06v6.21h2.27v-6.21h2.08v5.58c0,.41,0,.63-.22.81-.21.22-.62.41-1.03.41.41.22.83.41,1.03.41.22.22.22.64.22.84v6.82h-2.08v-7.44h-2.27v7.44h-2.06Zm9.5-14.87h2.05v14.87h-2.05v-14.87h0Zm11.56,2.27v12.61h-2.27v-13.64h-2.08v13.64h-2.27v-13.02c0-.82.19-1.24.82-1.44.4-.41,1.23-.41,2.47-.41s2.06.21,2.48.41c.41.21.84.62.84,1.44v.41h0Zm9.09,0v2.06h-2.08v-3.1h-2.27v12.4h2.27v-6.2h-1.03v-1.22h3.11v6.81c0,.41,0,.81-.22,1.02-.21.43-.62.63-1.03.63-.61.21-1.24.21-2.06.21-1.03,0-1.86-.21-2.47-.41-.41-.21-.62-.82-.62-1.44v-11.99c.21-.21.4-.41.62-.41.21-.21.62-.41.81-.62h1.87c1.03,0,1.86.21,2.48.41.41.21.63.62.63,1.44v.41Z"/><path class="cls-1" d="m157.96,23.97v8.66h-7.63c-1.06,0-1.66.21-2.29.4-.4.43-.62.84-.62,1.46s.22,1.24.84,1.44c.41.41,1.24.41,2.67.41h64.43v11.15h-65.86c-4.34,0-7.44-1.05-9.69-3.09-2.28-2.08-3.52-4.96-3.52-8.9v-15.07c0-3.71,1.03-6.61,3.3-8.66,2.05-2.06,5.17-3.09,8.89-3.09h10.11v11.34h-7.22c-2.09,0-3.11.62-3.11,1.86,0,.84.22,1.24.61,1.65.63.22,1.47.44,2.69.44h6.41Z"/><path class="cls-1" d="m0,7.84h13.01v13.83h14.24V7.84h13.02v2.06c-1.24,1.66-2.29,3.52-3.09,5.37-1.65,3.92-2.47,8.06-2.47,12.39s.82,8.26,2.47,12.18c.8,1.86,1.86,3.73,3.09,5.57v1.66h-13.02v-15.69h-14.24v15.69H0V7.84Z"/><path class="cls-1" d="m94.36,11.36l.21-.21c2.27-2.27,4.95-3.31,8.28-3.31,4.11,0,7.01,1.66,9.06,5.38,1.25-1.86,2.69-3.31,4.14-4.13,1.65-.84,3.51-1.25,5.57-1.25,3.51,0,6.2,1.04,8.07,3.31,2.05,2.06,2.89,5.36,2.89,9.49v26.85h-11.56v-25.19c0-1.25-.22-2.07-.43-2.49-.21-.41-.62-.62-1.03-.62-1.24,0-1.86,1.03-1.86,2.91v25.38h-11.34v-25.19c0-1.25,0-2.07-.22-2.49-.41-.41-.84-.62-1.22-.62-1.24,0-1.87,1.03-1.87,3.11v25.19h-11.15c2.06-2.28,3.51-4.96,4.74-7.64,1.44-3.92,2.27-7.63,2.27-12.18,0-5.99-1.44-11.56-4.54-16.31Z"/><path class="cls-1" d="m209.16,6.4h0c1.24,0,2.47.41,3.3,1.44h0c.83.84,1.46,1.87,1.46,3.31h0c0,1.24-.63,2.47-1.46,3.3-.82.82-2.06,1.46-3.3,1.46h0c-1.25,0-2.47-.63-3.3-1.46-.82-.83-1.46-2.06-1.46-3.3h0c0-1.44.63-2.48,1.46-3.31.82-1.03,2.05-1.44,3.3-1.44h0Zm0,.41h0c-1.25,0-2.28.63-2.89,1.23-.84.85-1.44,1.87-1.44,3.12h0c0,1.24.61,2.27,1.44,2.89.61.82,1.64,1.24,2.89,1.24h0c1.24,0,2.27-.41,3.09-1.24.62-.62,1.24-1.65,1.24-2.89h0c0-1.25-.62-2.27-1.24-3.12h0c-.82-.59-1.86-1.23-3.09-1.23Z"/><path class="cls-1" d="m206.68,14.04v-6.01h2.68c.62,0,1.03,0,1.24.22.41,0,.62.21.82.43,0,.41.21.61.21,1.03s-.21.82-.41,1.02c-.41.43-.82.63-1.24.63.21,0,.21.21.41.21.21.21.41.62.62.82l1.04,1.65h-1.04l-.82-1.24c-.21-.41-.41-.62-.41-.82-.21-.21-.41-.21-.41-.41q-.21,0-.43-.21h-1.43v2.68h-.82Zm.82-3.31h1.86c.21,0,.62,0,.82-.19.21,0,.41-.21.41-.21.21-.21.21-.42.21-.62,0-.43-.21-.62-.41-.83-.21,0-.41-.21-.82-.21h-2.06v2.05Z"/></svg>