<?xml version="1.0" encoding="utf-8"?>
<!-- Generator: Adobe Illustrator 27.7.0, SVG Export Plug-In . SVG Version: 6.00 Build 0)  -->
<svg version="1.1" id="_圖層_2" xmlns="http://www.w3.org/2000/svg" xmlns:xlink="http://www.w3.org/1999/xlink" x="0px" y="0px"
	 viewBox="0 0 386 54.5" style="enable-background:new 0 0 386 54.5;" xml:space="preserve">
<style type="text/css">
	.st0{fill-rule:evenodd;clip-rule:evenodd;fill:#E50012;}
	.st1{fill:#231815;}
	.st2{enable-background:new    ;}
</style>
<g id="_圖層_1-2">
	<path class="st0" d="M66.9,0C82,0,94.1,12.2,94.1,27.2S82,54.5,66.9,54.5S39.4,42.3,39.4,27.2S51.6,0,66.9,0L66.9,0z M66.9,15.5
		c-6.6,0-12,5.4-12,11.8S60.3,39,66.9,39s11.8-5.2,11.8-11.8S73.3,15.5,66.9,15.5z"/>
	<path class="st1" d="M171.6,21v12.6h-2.1V20h-2.3v13.6h-2.1V20h-2.3v13.6h-2.1V20.5c0-0.6,0.2-1,0.6-1.2c0.6-0.4,1.2-0.4,2.5-0.4
		c1,0,1.6,0.2,2.3,0.4c0.4-0.2,0.6-0.2,1-0.4h1.4c1,0,1.9,0.2,2.3,0.4c0.4,0.2,0.6,0.8,0.6,1.4L171.6,21L171.6,21L171.6,21z
		 M176.5,25h2.3v-5h-2.3V25L176.5,25z M180.9,21v12.6h-2.1v-7.4h-2.3v7.4h-2.1v-13c0-0.8,0.2-1.2,0.6-1.4c0.6-0.4,1.4-0.4,2.5-0.4
		c1.2,0,2,0.2,2.5,0.4c0.6,0.2,0.8,0.6,0.8,1.4L180.9,21L180.9,21L180.9,21z M183.8,33.7V18.8h2.1V25h2.3v-6.2h2.1v5.6
		c0,0.4,0,0.6-0.2,0.8c-0.2,0.2-0.6,0.4-1,0.4c0.4,0.2,0.8,0.4,1,0.4c0.2,0.2,0.2,0.6,0.2,0.8v6.8h-2.1v-7.4h-2.3v7.4H183.8z
		 M193.3,18.8h2.1v14.9h-2.1V18.8L193.3,18.8z M204.8,21.1v12.6h-2.3V20h-2.1v13.6h-2.3v-13c0-0.8,0.2-1.2,0.8-1.4
		c0.4-0.4,1.2-0.4,2.5-0.4s2.1,0.2,2.5,0.4c0.4,0.2,0.8,0.6,0.8,1.4L204.8,21.1L204.8,21.1L204.8,21.1z M213.9,21.1v2.1h-2.1V20
		h-2.3v12.4h2.3v-6.2h-1V25h3.1v6.8c0,0.4,0,0.8-0.2,1c-0.2,0.4-0.6,0.6-1,0.6c-0.6,0.2-1.2,0.2-2.1,0.2c-1,0-1.9-0.2-2.5-0.4
		c-0.4-0.2-0.6-0.8-0.6-1.4v-12c0.2-0.2,0.4-0.4,0.6-0.4c0.2-0.2,0.6-0.4,0.8-0.6h1.9c1,0,1.9,0.2,2.5,0.4c0.4,0.2,0.6,0.6,0.6,1.4
		L213.9,21.1L213.9,21.1z"/>
	<path class="st1" d="M158,23.5v8.7h-7.6c-1.1,0-1.7,0.2-2.3,0.4c-0.4,0.4-0.6,0.8-0.6,1.5s0.2,1.2,0.8,1.4c0.4,0.4,1.2,0.4,2.7,0.4
		h64.4v11.2h-65.9c-4.3,0-7.4-1-9.7-3.1c-2.3-2.1-3.5-5-3.5-8.9V20c0-3.7,1-6.6,3.3-8.7c2.1-2.1,5.2-3.1,8.9-3.1h10.1v11.3h-7.2
		c-2.1,0-3.1,0.6-3.1,1.9c0,0.8,0.2,1.2,0.6,1.6c0.6,0.2,1.5,0.4,2.7,0.4L158,23.5L158,23.5z"/>
	<path class="st1" d="M0,7.4h13v13.8h14.2V7.4h13v2.1C39,11.1,38,13,37.2,14.8c-1.7,3.9-2.5,8.1-2.5,12.4s0.8,8.3,2.5,12.2
		c0.8,1.9,1.9,3.7,3.1,5.6v1.7h-13V31H13v15.7H0V7.4z"/>
	<path class="st1" d="M94.4,10.9l0.2-0.2c2.3-2.3,4.9-3.3,8.3-3.3c4.1,0,7,1.7,9.1,5.4c1.2-1.9,2.7-3.3,4.1-4.1
		c1.7-0.8,3.5-1.2,5.6-1.2c3.5,0,6.2,1,8.1,3.3c2.1,2.1,2.9,5.4,2.9,9.5v26.9H121V21.9c0-1.2-0.2-2.1-0.4-2.5
		c-0.2-0.4-0.6-0.6-1-0.6c-1.2,0-1.9,1-1.9,2.9v25.4h-11.3V21.9c0-1.2,0-2.1-0.2-2.5c-0.4-0.4-0.8-0.6-1.2-0.6c-1.2,0-1.9,1-1.9,3.1
		v25.2H91.9c2.1-2.3,3.5-5,4.7-7.6c1.4-3.9,2.3-7.6,2.3-12.2C98.9,21.2,97.5,15.7,94.4,10.9L94.4,10.9z"/>
	<path class="st1" d="M209.2,6L209.2,6c1.2,0,2.5,0.4,3.3,1.4l0,0c0.8,0.8,1.5,1.9,1.5,3.3l0,0c0,1.2-0.6,2.5-1.5,3.3
		c-0.8,0.8-2.1,1.5-3.3,1.5l0,0c-1.2,0-2.5-0.6-3.3-1.5c-0.8-0.8-1.5-2.1-1.5-3.3l0,0c0-1.4,0.6-2.5,1.5-3.3
		C206.7,6.4,207.9,6,209.2,6C209.2,6,209.2,6,209.2,6z M209.2,6.4L209.2,6.4c-1.2,0-2.3,0.6-2.9,1.2c-0.8,0.9-1.4,1.9-1.4,3.1l0,0
		c0,1.2,0.6,2.3,1.4,2.9c0.6,0.8,1.6,1.2,2.9,1.2l0,0c1.2,0,2.3-0.4,3.1-1.2c0.6-0.6,1.2-1.6,1.2-2.9l0,0c0-1.2-0.6-2.3-1.2-3.1l0,0
		C211.4,7,210.4,6.4,209.2,6.4z"/>
	<path class="st1" d="M206.7,13.6v-6h2.7c0.6,0,1,0,1.2,0.2c0.4,0,0.6,0.2,0.8,0.4c0,0.4,0.2,0.6,0.2,1s-0.2,0.8-0.4,1
		c-0.4,0.4-0.8,0.6-1.2,0.6c0.2,0,0.2,0.2,0.4,0.2c0.2,0.2,0.4,0.6,0.6,0.8l1,1.6h-1l-0.8-1.2c-0.2-0.4-0.4-0.6-0.4-0.8
		c-0.2-0.2-0.4-0.2-0.4-0.4c-0.1,0-0.3-0.1-0.4-0.2h-1.4v2.7H206.7L206.7,13.6z M207.5,10.3h1.9c0.2,0,0.6,0,0.8-0.2
		c0.2,0,0.4-0.2,0.4-0.2c0.2-0.2,0.2-0.4,0.2-0.6c0-0.4-0.2-0.6-0.4-0.8c-0.2,0-0.4-0.2-0.8-0.2h-2.1L207.5,10.3L207.5,10.3z"/>
	<g class="st2">
		<path class="st1" d="M237.2,31.1v2.1h-5.6c-0.3,0.3-0.6,0.6-0.9,0.9c1.1,0.5,1.9,1.4,2.4,2.7c2.2-1.5,4.7-2.3,7.4-2.5v2.1
			c-2,0.2-4.1,0.9-6.2,2.1c2.3,2.2,4.5,3.8,6.6,5v2.6c-2.7-1.6-5.2-3.4-7.3-5.4c0,1.5-0.3,2.9-0.7,4.2c-0.5,1.2-1.5,1.9-3.1,2
			c-1.5,0-2.6-0.1-3.3-0.3v-2.1c0.9,0.2,1.8,0.3,2.8,0.3c0.8,0,1.3-0.3,1.6-1c0.3-0.6,0.5-1.6,0.5-2.9c-2.4,2.2-5.8,3.8-10.3,4.9
			v-2.4c4.8-1,8.1-2.7,10.2-5.3c-0.1-0.4-0.2-0.7-0.3-1c-2,2.2-5.2,3.7-9.7,4.6v-2.3c3.3-0.5,6.1-1.7,8.4-3.8
			c-0.3-0.1-0.6-0.2-0.9-0.2c-1.9,1-4.4,1.8-7.5,2.4v-2.3c3.1-0.3,5.5-1.1,7.3-2.4h-3.8v-2.1H237.2z M231.9,26.1v1.6l5.8,0
			c1.9,0.2,2.9,1,2.9,2.4c0,1.4-0.2,2.5-0.5,3.2h-2.3c0.3-1.4,0.5-2.2,0.5-2.7c0-0.6-0.4-0.9-1.2-0.9h-13.4v3.4h-2.3l0-5.5h8.1v-1.6
			H231.9z"/>
		<path class="st1" d="M249.4,26.1v2h0.8c0.6,0.1,1.1,0.4,1.5,0.8c0.3,0.5,0.5,1,0.5,1.5c0,1.6-1,3.3-2.9,5.1v0.1
			c0.8-0.2,1.7-0.4,2.7-0.6v2.1c-0.7,0.1-1.6,0.3-2.7,0.6v0.1c0.9,0.2,1.8,0.6,2.7,1V41c-0.9-0.4-1.8-0.8-2.7-1.1v7.4h-2.2v-9.9
			c-0.9,0.6-1.8,1.3-2.8,1.9v-2.8c3.6-2.3,5.4-4.1,5.5-5.3c0-0.5-0.2-0.8-0.7-0.9h-4.5v-2.2h2.6v-2H249.4z M252.8,38.4V26.6h6.9
			c3.3,0,5,2,5.1,5.8c0,3.8-1.4,5.8-4.3,6h-0.9v1.8h4.8v2.3h-4.8v2h5.3v2.4h-12.7v-2.4h5.3v-2h-4.8v-2.3h4.8v-1.8H252.8z
			 M254.9,28.6v2.9h2.5v-2.9H254.9z M254.9,36.3h2.5v-2.9h-2.5V36.3z M259.7,28.6L259.7,28.6l-0.1,2.9h2.9
			C262.3,29.5,261.3,28.6,259.7,28.6z M260.1,36.3c1.4-0.2,2.2-1.2,2.4-2.9h-2.9v2.9H260.1z"/>
		<path class="st1" d="M274.8,28c0.4,0.7,0.7,1.6,0.7,2.7c0,1.1-0.3,2.1-0.8,2.8c-0.3,0.4-0.6,0.6-0.9,0.8v3.2h1.8v2h-1.8v4.1
			c0.5-0.1,1.1-0.2,1.7-0.3v2.1c-1.9,0.4-3.4,0.5-4.8,0.5c-1.3-0.2-1.9-1.2-1.9-3.1v-7.2h1.9v7.5c0,0.4,0.2,0.6,0.6,0.6
			c0.1,0,0.3,0,0.4,0v-9.1h-2.7v-7.8h3.6C273.6,26.9,274.3,27.3,274.8,28z M272.5,32.8c0.7-0.1,1.1-0.8,1.1-2.1c0-1.1-0.4-1.7-1.1-2
			h-1.3v4.1H272.5z M280.7,26.3c0.1,0.5,0.3,1,0.5,1.5h2.9c0.1-0.5,0.3-1,0.5-1.5h2.3c-0.1,0.5-0.3,1.1-0.5,1.5h2.2v2h-4
			c0,0.4,0,0.8,0,1.1h0.4c1.1,0.1,1.9,0.6,2.5,1.4c0.6,0.7,0.9,1.7,1,3c0,1.4-0.3,2.5-0.8,3.3c-0.7,1-1.6,1.4-2.5,1.5h-8.4v-9.1h3.3
			c0-0.2,0-0.4,0-0.6v-0.5h-3.9v-2h2.7c-0.2-0.5-0.3-1-0.5-1.5H280.7z M284.5,40.9v-0.5h2.1c0,0.2,0,0.4,0,0.5h2.1v2h-2v1.6
			c0,0.7-0.2,1.3-0.6,1.8c-0.6,0.5-1.2,0.7-1.8,0.7h-2.8v-1.9h2.1c0.7,0,1.1-0.2,1.1-0.6v-1.6h-8.4v-2H284.5z M279.2,43.5
			c0.5,1.1,0.9,2.2,1.2,3.2h-2c-0.2-1.1-0.6-2.1-1.2-3.2H279.2z M284.5,38.2c1.3-0.1,1.9-1,2-2.9c0-1.6-0.6-2.4-1.6-2.7h-0.3
			c0,0.2,0,0.4,0,0.5c0.1,0.5,0.2,0.7,0.4,0.7c0.2,0,0.4,0,0.6-0.1v1.5c-0.2,0-0.7,0.1-1.3,0.1c-0.8,0-1.3-0.5-1.4-1.4
			c0-0.4-0.1-0.8-0.1-1.2h-1.1c-0.2,1.1-0.4,1.9-0.8,2.6h-1.7c0.3-0.8,0.5-1.6,0.6-2.6h-1.2v5.5L284.5,38.2z M285.3,35.9v1.6h-5.9
			v-1.6H285.3z M282.8,29.8h-0.9v0.5c0,0.2,0,0.5,0,0.7h0.9C282.7,30.5,282.8,30.1,282.8,29.8z"/>
		<path class="st1" d="M294.4,32.6h-2.2l2.7-5.8h6.6c1.2,0.1,2,0.8,2.5,1.9l1.6,4.1h-2.3l-0.4-0.9h-8.1L294.4,32.6z M305,36.4
			c0,2.2-1.1,3.3-3.3,3.3h-6.2c-0.1,2.5-0.4,4.9-0.6,7h-2.1c0.4-4.3,0.6-8.8,0.8-13.6h8C303.8,33.4,304.9,34.5,305,36.4z
			 M301.3,38.1c0.6,0,1-0.4,1.2-0.9h-6.9c0,0.3,0,0.6,0,0.9H301.3z M302.5,35.7c-0.2-0.5-0.6-0.9-1.3-1h-5.5c0,0.3,0,0.7,0,1H302.5z
			 M301.9,29.5c-0.2-0.5-0.6-0.8-1.2-0.8h-4l-0.7,1.3h6.2L301.9,29.5z M304.5,43.8c0,2-0.9,3-2.7,3h-5.4l0-6h5.4
			C303.5,40.9,304.5,41.9,304.5,43.8z M301.4,45.1c0.6,0,1-0.4,1-1.3c0-0.8-0.4-1.2-1.1-1.3h-2.8v2.7H301.4z M311.7,26.4
			c0.1,2.3,0.2,7.8,0.3,16.6c-0.1,1.3-0.3,2.2-0.8,2.7c-0.6,0.8-1.3,1.2-2.2,1.2c-1.1,0-2.3-0.1-3.6-0.2v-2.2c0.8,0.1,1.8,0.2,3,0.2
			c0.9,0,1.3-1,1.3-3c0-8.5-0.2-13.6-0.4-15.3H311.7z M308.2,26.9v16.3H306V26.9H308.2z"/>
		<path class="st1" d="M325.1,27.5v-1.3h2.4v1.3h8.1v2h-2.4c-0.2,0.6-0.4,1.2-0.5,1.7h3.6v2h-20v-2h3.9c-0.2-0.5-0.3-1.1-0.5-1.7
			h-2.6v-2H325.1z M320.6,41.3c-0.9,3.2-2.2,5.1-4.1,5.8v-2.5c0.8-0.5,1.4-1.6,1.9-3.2H320.6z M334.5,35.2c0.4,0.7,0.6,1.4,0.6,2.1
			c0,1.1-0.3,1.9-0.7,2.4c-0.5,0.5-1.1,0.8-2,0.9h-14v-6.5h14.2C333.4,34.2,334,34.6,334.5,35.2z M331.4,35.7h-10.7v1h11.9
			C332.5,36.1,332,35.8,331.4,35.7z M320.7,39h10.7c0.6,0,1-0.3,1.2-0.9h-11.9V39z M323.7,41.3c0,0.6,0,1.4,0,2.3
			c0,0.8,0.9,1.2,2.6,1.2c2.5,0,4.5,0,6.1-0.2v2.1c-2.3,0.1-4.6,0.1-7.1,0.1c-2.5,0-3.7-1.1-3.7-3.4c0-0.8,0-1.5,0-2.1H323.7z
			 M330.2,31.2c0.2-0.6,0.4-1.1,0.6-1.7H322c0.1,0.6,0.3,1.1,0.5,1.7H330.2z M328.3,41.2c0.6,1,1,1.9,1.3,2.8h-2.3
			c-0.2-0.9-0.7-1.9-1.3-2.8H328.3z M333.8,41.3c1.1,1.7,1.9,3.5,2.6,5.5l-2.4,0c-0.5-1.9-1.4-3.7-2.6-5.4H333.8z"/>
		<path class="st1" d="M343,41.8c0,1.2,0.5,1.9,1.7,2c1.7,0,3.2-0.2,4.8-0.6l0,2.3c-2.2,0.4-3.9,0.6-5.3,0.6
			c-2.1-0.4-3.3-1.8-3.5-4.3c-0.1-1.8-0.1-3.9-0.1-6.2c0-3.2,0.1-6,0.2-8.5c4,0,6.8-0.2,8.6-0.5v2.2c-2,0.3-4.1,0.5-6.4,0.5
			c-0.1,1.6-0.1,3.3-0.1,5.1h6.6v2.3h-6.6C342.8,38.7,342.9,40.5,343,41.8z M358.5,27.6c0.4,0.5,0.7,1.1,0.9,1.9
			c0.4,1.8,0.6,3.9,0.6,6.3c0,3.2-0.2,5.4-0.6,6.8c-0.5,2-1.7,3.1-3.5,3.1c-0.9,0-1.7-0.1-2.5-0.2v-2.3c0.6,0.1,1.2,0.2,2,0.2
			c1.1-0.1,1.7-0.6,1.7-1.4c0.3-1,0.5-3,0.5-5.9c0-2.5-0.1-4.4-0.3-5.7c0-0.9-0.5-1.4-1.6-1.6h-3.1l0,18.5h-2.2V26.7l5.9,0
			C357.2,26.8,358,27.1,358.5,27.6z"/>
		<path class="st1" d="M367,32.9c0,4.7-0.1,9.4-0.4,13.9h-2.2c0.2-3.9,0.4-8.5,0.4-13.9v-6.1h9.2c1.8,0,2.8,1,2.8,2.9
			c0,1.9-0.9,2.9-2.6,2.9H367V32.9z M367,30.7h7c0.4,0,0.7-0.3,0.7-0.9c0-0.7-0.2-1.1-0.7-1.1h-7V30.7z M373.2,33.3v1.2h1
			c1.1,0.2,1.9,0.9,2.2,2c0.2,0.7,0.3,1.9,0.3,3.7c0,1.1,0,2-0.1,2.7c-0.3,1.6-1,2.5-2.1,2.6c-0.5,0-1,0-1.3,0v1.7h-2V36.5h-1.3v9.4
			h-2V34.5h3.3v-1.2H373.2z M373.8,43.6c0.4,0,0.7-0.3,0.8-0.9c0.1-0.7,0.1-1.5,0.1-2.5c0-1.2-0.1-2.1-0.2-2.7c0-0.7-0.4-1.1-1-1.1
			h-0.3v7.1C373.4,43.6,373.6,43.6,373.8,43.6z M383.4,26.2c0.1,2.3,0.2,7.9,0.3,16.8c-0.1,1.3-0.3,2.2-0.7,2.7
			c-0.5,0.8-1.2,1.2-2,1.2c-1,0-2.1-0.1-3.3-0.2v-2.2c0.7,0.1,1.6,0.2,2.7,0.2c0.8,0,1.1-1,1.1-3c0-8.7-0.2-13.8-0.4-15.6H383.4z
			 M379.8,26.8v16.8h-2.2V26.8H379.8z"/>
	</g>
</g>
</svg>
