<svg id="_圖層_2" viewBox="0 0 383.69 54.5" xmlns="http://www.w3.org/2000/svg"> <defs> <style>.cls-2{fill:#231815}</style> </defs> <g id="_圖層_1-2"> <path d="M66.9 0c15.08 0 27.24 12.18 27.24 27.25S81.99 54.5 66.9 54.5 39.44 42.32 39.44 27.25 51.61 0 66.9 0Zm0 15.49c-6.6 0-11.99 5.35-11.99 11.76S60.3 39.02 66.9 39.02s11.76-5.16 11.76-11.77-5.34-11.76-11.76-11.76Z" fill="#e50012" fill-rule="evenodd"/> <path class="cls-2" d="M171.57 21.05v12.61h-2.05V20.02h-2.28v13.64h-2.06V20.02h-2.27v13.64h-2.06V20.45c0-.63.21-1.04.61-1.25.63-.41 1.25-.41 2.49-.41 1.03 0 1.65.21 2.27.41.41-.21.62-.21 1.03-.41h1.44c1.03 0 1.86.21 2.27.41.43.21.62.82.62 1.44v.41Zm4.95 3.94h2.29v-4.98h-2.29v4.98Zm4.36-3.94v12.61h-2.06v-7.44h-2.29v7.44h-2.05V20.64c0-.82.19-1.24.61-1.44.62-.41 1.44-.41 2.5-.41 1.24 0 2.04.21 2.47.41.62.21.82.62.82 1.44v.41Zm2.89 12.61V18.79h2.06V25h2.27v-6.21h2.08v5.58c0 .41 0 .63-.22.81-.21.22-.62.41-1.03.41.41.22.83.41 1.03.41.22.22.22.64.22.84v6.82h-2.08v-7.44h-2.27v7.44h-2.06Zm9.5-14.87h2.05v14.87h-2.05V18.79Zm11.56 2.27v12.61h-2.27V20.03h-2.08v13.64h-2.27V20.65c0-.82.19-1.24.82-1.44.4-.41 1.23-.41 2.47-.41s2.06.21 2.48.41c.41.21.84.62.84 1.44v.41Zm9.09 0v2.06h-2.08v-3.1h-2.27v12.4h2.27v-6.2h-1.03V25h3.11v6.81c0 .41 0 .81-.22 1.02-.21.43-.62.63-1.03.63-.61.21-1.24.21-2.06.21-1.03 0-1.86-.21-2.47-.41-.41-.21-.62-.82-.62-1.44V19.83c.21-.21.4-.41.62-.41.21-.21.62-.41.81-.62h1.87c1.03 0 1.86.21 2.48.41.41.21.63.62.63 1.44v.41Z"/> <path class="cls-2" d="M157.96 23.55v8.66h-7.63c-1.06 0-1.66.21-2.29.4-.4.43-.62.84-.62 1.46s.22 1.24.84 1.44c.41.41 1.24.41 2.67.41h64.43v11.15H149.5c-4.34 0-7.44-1.05-9.69-3.09-2.28-2.08-3.52-4.96-3.52-8.9V20.01c0-3.71 1.03-6.61 3.3-8.66 2.05-2.06 5.17-3.09 8.89-3.09h10.11V19.6h-7.22c-2.09 0-3.11.62-3.11 1.86 0 .84.22 1.24.61 1.65.63.22 1.47.44 2.69.44h6.41ZM0 7.42h13.01v13.83h14.24V7.42h13.02v2.06a26.961 26.961 0 0 0-3.09 5.37c-1.65 3.92-2.47 8.06-2.47 12.39s.82 8.26 2.47 12.18c.8 1.86 1.86 3.73 3.09 5.57v1.66H27.25V30.96H13.01v15.69H0V7.42ZM94.36 10.94l.21-.21c2.27-2.27 4.95-3.31 8.28-3.31 4.11 0 7.01 1.66 9.06 5.38 1.25-1.86 2.69-3.31 4.14-4.13 1.65-.84 3.51-1.25 5.57-1.25 3.51 0 6.2 1.04 8.07 3.31 2.05 2.06 2.89 5.36 2.89 9.49v26.85h-11.56V21.88c0-1.25-.22-2.07-.43-2.49-.21-.41-.62-.62-1.03-.62-1.24 0-1.86 1.03-1.86 2.91v25.38h-11.34V21.87c0-1.25 0-2.07-.22-2.49-.41-.41-.84-.62-1.22-.62-1.24 0-1.87 1.03-1.87 3.11v25.19H91.9c2.06-2.28 3.51-4.96 4.74-7.64 1.44-3.92 2.27-7.63 2.27-12.18 0-5.99-1.44-11.56-4.54-16.31ZM209.16 5.98c1.24 0 2.47.41 3.3 1.44.83.84 1.46 1.87 1.46 3.31 0 1.24-.63 2.47-1.46 3.3-.82.82-2.06 1.46-3.3 1.46-1.25 0-2.47-.63-3.3-1.46-.82-.83-1.46-2.06-1.46-3.3 0-1.44.63-2.48 1.46-3.31.82-1.03 2.05-1.44 3.3-1.44Zm0 .41c-1.25 0-2.28.63-2.89 1.23-.84.85-1.44 1.87-1.44 3.12 0 1.24.61 2.27 1.44 2.89.61.82 1.64 1.24 2.89 1.24 1.24 0 2.27-.41 3.09-1.24.62-.62 1.24-1.65 1.24-2.89 0-1.25-.62-2.27-1.24-3.12-.82-.59-1.86-1.23-3.09-1.23Z"/> <path class="cls-2" d="M206.68 13.63V7.62h2.68c.62 0 1.03 0 1.24.22.41 0 .62.21.82.43 0 .41.21.61.21 1.03s-.21.82-.41 1.02c-.41.43-.82.63-1.24.63.21 0 .21.21.41.21.21.21.41.62.62.82l1.04 1.65h-1.04l-.82-1.24c-.21-.41-.41-.62-.41-.82-.21-.21-.41-.21-.41-.41q-.21 0-.43-.21h-1.43v2.68h-.82Zm.82-3.31h1.86c.21 0 .62 0 .82-.19.21 0 .41-.21.41-.21.21-.21.21-.42.21-.62 0-.43-.21-.62-.41-.83-.21 0-.41-.21-.82-.21h-2.06v2.05ZM237.15 31.14v2.13h-5.59c-.29.31-.57.6-.91.86 1.12.53 1.91 1.43 2.39 2.68 2.25-1.46 4.71-2.29 7.38-2.48v2.08c-2.03.24-4.11.93-6.21 2.08 2.29 2.15 4.52 3.82 6.62 4.97v2.63c-2.75-1.58-5.16-3.39-7.26-5.42-.05 1.48-.26 2.89-.67 4.23-.53 1.24-1.53 1.89-3.06 1.98-1.46 0-2.56-.1-3.32-.29v-2.08c.86.19 1.82.26 2.82.26.81 0 1.34-.31 1.55-.96.29-.62.45-1.58.5-2.92-2.39 2.17-5.83 3.8-10.35 4.87v-2.37c4.76-.98 8.15-2.75 10.16-5.28-.1-.36-.22-.69-.33-.98-1.96 2.15-5.21 3.68-9.75 4.64v-2.29c3.27-.45 6.07-1.7 8.39-3.75-.29-.1-.6-.17-.93-.21-1.94 1.03-4.42 1.84-7.46 2.44v-2.32c3.06-.29 5.47-1.08 7.29-2.37h-3.8v-2.13h12.54Zm-5.23-5.04v1.6l5.76.02c1.91.24 2.87 1.03 2.89 2.41-.05 1.43-.21 2.48-.45 3.18h-2.32c.33-1.36.5-2.25.5-2.68 0-.57-.41-.86-1.22-.86h-13.36v3.42h-2.27l-.02-5.5h8.08v-1.6h2.41ZM249.43 26.1v1.96h.76c.62.1 1.15.38 1.53.81.33.48.53.98.53 1.53 0 1.62-.96 3.35-2.87 5.11v.07c.76-.17 1.67-.36 2.68-.57v2.08c-.74.14-1.62.33-2.68.57v.12c.91.24 1.79.57 2.65.96v2.22c-.91-.43-1.79-.81-2.65-1.15v7.41h-2.2v-9.89c-.86.65-1.79 1.29-2.84 1.91v-2.77c3.56-2.32 5.4-4.09 5.54-5.33 0-.53-.24-.81-.72-.88h-4.54v-2.2h2.63V26.1h2.17Zm3.37 12.31v-11.8h6.86c3.3 0 4.99 1.96 5.07 5.83 0 3.78-1.43 5.76-4.28 5.97h-.86v1.77h4.78v2.29h-4.78v1.98h5.33v2.37h-12.74v-2.37h5.28v-1.98h-4.75v-2.29h4.75v-1.77h-4.66Zm2.15-9.84v2.87h2.51v-2.87h-2.51Zm0 7.77h2.51v-2.87h-2.51v2.87Zm4.71-7.77h-.07v2.87h2.94c-.24-1.91-1.19-2.87-2.87-2.87Zm.45 7.77c1.41-.22 2.22-1.17 2.41-2.87h-2.94v2.87h.53ZM274.85 27.99c.43.69.67 1.6.67 2.7s-.26 2.08-.76 2.84c-.29.38-.57.65-.88.81v3.18h1.79v1.98h-1.79v4.06c.53-.07 1.08-.17 1.67-.26v2.13c-1.86.36-3.44.55-4.76.55-1.27-.19-1.89-1.19-1.89-3.11V35.7h1.91v7.5c0 .43.19.62.62.62.12 0 .26 0 .43-.02v-9.13h-2.65v-7.79h3.63c.76 0 1.43.38 2.01 1.1Zm-2.32 4.8c.72-.14 1.08-.84 1.08-2.08 0-1.08-.38-1.74-1.15-1.98h-1.31v4.06h1.39Zm8.15-6.48c.14.48.31.98.5 1.46h2.89c.14-.5.31-1 .45-1.48h2.32c-.14.55-.31 1.05-.48 1.48h2.22v1.98h-3.99c-.02.41-.02.79-.02 1.12h.43c1.08.14 1.91.6 2.51 1.41.62.69.93 1.67.96 2.96 0 1.43-.29 2.53-.84 3.27-.72.96-1.55 1.43-2.51 1.46h-8.44v-9.1H280c0-.22.02-.43.05-.65v-.48h-3.87v-1.98h2.68c-.19-.48-.33-.96-.45-1.46h2.27Zm3.87 14.62v-.55h2.08c0 .19 0 .38.02.55h2.05v1.96h-2.01v1.58c0 .74-.21 1.31-.62 1.77-.57.48-1.19.72-1.84.74h-2.8v-1.91h2.08c.69 0 1.05-.19 1.05-.62V42.9h-8.39v-1.96h8.36Zm-5.33 2.58c.53 1.1.93 2.17 1.17 3.23h-1.98c-.24-1.08-.65-2.13-1.24-3.23h2.06Zm5.3-5.33c1.27-.07 1.94-1.03 1.98-2.87-.05-1.55-.6-2.44-1.62-2.65h-.31c0 .19 0 .36.02.53.07.45.21.67.43.67.24 0 .43-.02.6-.1v1.46c-.21.05-.67.1-1.34.12-.79 0-1.27-.48-1.43-1.43-.05-.41-.1-.81-.1-1.24h-1.12c-.17 1.05-.43 1.91-.76 2.58h-1.7c.29-.76.48-1.62.62-2.58h-1.19v5.54l5.93-.02Zm.74-2.32v1.58h-5.88v-1.58h5.88Zm-2.51-6.12h-.93v.45c0 .24-.02.48-.02.67h.93c0-.41.02-.79.02-1.12ZM294.4 32.65h-2.25l2.75-5.83h6.6c1.19.12 2.01.76 2.49 1.91l1.58 4.13h-2.29l-.36-.93h-8.1l-.41.72Zm10.61 3.78c-.02 2.2-1.12 3.32-3.27 3.32h-6.24c-.14 2.53-.36 4.87-.62 6.98h-2.05c.38-4.25.62-8.79.76-13.57h8.03c2.2.21 3.32 1.31 3.39 3.27Zm-3.66 1.7c.62-.05 1.03-.36 1.19-.91h-6.93c-.02.33-.05.62-.05.91h5.78Zm1.19-2.39c-.19-.53-.65-.86-1.34-.96h-5.52c0 .33-.02.67-.02.96h6.88Zm-.62-6.24c-.19-.53-.62-.79-1.24-.81h-4.01l-.74 1.29h6.19l-.19-.48Zm2.6 14.29c0 1.98-.93 2.99-2.75 2.99h-5.45l-.02-6h5.35c1.86.12 2.82 1.12 2.87 3.01Zm-3.08 1.29c.62 0 .96-.43.96-1.31 0-.79-.38-1.24-1.15-1.34h-2.84v2.65h3.03Zm10.23-18.71c.14 2.29.24 7.81.29 16.58-.1 1.34-.33 2.25-.76 2.7-.57.81-1.29 1.22-2.17 1.22-1.08 0-2.27-.07-3.58-.22v-2.17c.81.14 1.82.19 3.03.19.86 0 1.31-1 1.31-3.01-.05-8.48-.19-13.57-.43-15.29h2.32Zm-3.49.53v16.34h-2.2V26.9h2.2ZM325.08 27.51v-1.34h2.41v1.34h8.12v2.01h-2.44a18.2 18.2 0 0 1-.55 1.67h3.63v2.03h-20.02v-2.03h3.92c-.17-.53-.31-1.08-.45-1.67h-2.63v-2.01h8Zm-4.42 13.79c-.86 3.15-2.2 5.07-4.06 5.78v-2.53c.76-.48 1.41-1.55 1.94-3.25h2.13Zm13.83-6.12c.43.69.65 1.41.65 2.13 0 1.1-.26 1.91-.74 2.44-.48.55-1.15.84-2.01.86h-13.96v-6.5h14.17c.81.1 1.46.45 1.89 1.08Zm-3.11.48h-10.66v.96h11.95c-.19-.53-.62-.86-1.29-.96Zm-10.66 3.39h10.73c.62-.02 1.03-.33 1.19-.93h-11.92v.93Zm3.01 2.25c-.02.65-.02 1.41-.02 2.32 0 .79.86 1.17 2.56 1.17 2.46 0 4.49-.05 6.12-.17v2.08c-2.27.07-4.64.12-7.1.12s-3.73-1.15-3.73-3.42c0-.81.02-1.53.02-2.1h2.15Zm6.52-10.11c.19-.57.38-1.12.57-1.67h-8.87c.14.6.31 1.15.5 1.67h7.79Zm-1.96 10.06c.57.98 1 1.94 1.27 2.84h-2.29c-.24-.93-.67-1.89-1.29-2.84h2.32Zm5.52.07c1.08 1.67 1.94 3.51 2.58 5.47l-2.41-.02c-.55-1.89-1.41-3.7-2.58-5.45h2.41ZM342.97 41.83c0 1.24.55 1.91 1.7 1.96 1.67-.05 3.25-.24 4.78-.6l.02 2.34c-2.15.38-3.92.6-5.3.6-2.1-.38-3.27-1.79-3.51-4.3-.07-1.82-.1-3.9-.1-6.24 0-3.23.07-6.05.24-8.48 3.97 0 6.83-.17 8.6-.5v2.17c-1.96.33-4.09.48-6.43.48-.1 1.58-.14 3.3-.14 5.11h6.57v2.29h-6.57c0 2.08.05 3.8.14 5.16Zm15.58-14.22c.43.48.74 1.1.93 1.86.38 1.79.57 3.9.57 6.28 0 3.15-.21 5.45-.6 6.83-.53 2.03-1.7 3.06-3.54 3.11-.86 0-1.7-.07-2.46-.17v-2.27c.57.12 1.24.17 2.01.17 1.15-.1 1.72-.57 1.74-1.43.31-1 .48-2.96.48-5.88 0-2.46-.1-4.37-.29-5.71 0-.88-.53-1.41-1.58-1.6h-3.11l-.02 18.52h-2.25V26.75l5.85-.02c.91.05 1.67.33 2.25.88ZM367.03 32.89c0 4.73-.14 9.37-.43 13.91h-2.15c.24-3.9.38-8.53.38-13.91v-6.07h9.15c1.84 0 2.77.98 2.77 2.94-.02 1.91-.91 2.87-2.63 2.87h-7.1v.26Zm0-2.2h6.95c.43 0 .67-.31.67-.93 0-.69-.24-1.05-.67-1.05h-6.95v1.98Zm6.21 2.63v1.22h1c1.15.24 1.89.88 2.22 1.98.17.67.26 1.91.29 3.73 0 1.15-.05 2.03-.1 2.7-.26 1.65-.96 2.51-2.1 2.63-.53 0-.96-.02-1.31-.05v1.67h-2.03V36.47h-1.31v9.44h-2.03V34.54h3.35v-1.22h2.03Zm.6 10.3c.43-.02.69-.31.79-.86.07-.69.12-1.53.12-2.49 0-1.19-.07-2.1-.17-2.75-.05-.69-.41-1.05-1.03-1.05h-.31v7.12c.19.02.41.02.6.02Zm9.53-17.42c.14 2.32.24 7.93.31 16.85-.1 1.34-.33 2.22-.74 2.68-.53.79-1.19 1.19-2.01 1.19-1 0-2.13-.07-3.35-.19v-2.17c.72.14 1.6.21 2.7.21.76 0 1.15-.98 1.15-2.99-.05-8.65-.19-13.84-.43-15.58h2.37Zm-3.54.65v16.8h-2.22v-16.8h2.22Z"/> </g>
</svg>