<?xml version="1.0" encoding="UTF-8"?><svg id="uuid-06be2782-34a4-4959-9a3d-8266bf086dab" xmlns="http://www.w3.org/2000/svg" width="1100" height="110" viewBox="0 0 1100 110"><circle cx="668.75" cy="58.36" r="3.54" style="fill:#d9bb86; stroke-width:0px;"/><path d="m651.81,79.45v-.89l.89-.87c1.71-1.63,2.58-2.62,2.59-3.68,0-.71-.37-1.3-1.34-1.3-.67,0-1.22.33-1.59.61l-.41-1.04c.52-.41,1.34-.75,2.28-.75,1.7,0,2.5,1.08,2.5,2.34,0,1.38-.98,2.51-2.27,3.76l-.65.6v.02h3.09v1.21h-5.09Z" style="fill:#231815; stroke-width:0px;"/><path d="m658.13,78.64c0-.55.38-.94.9-.94s.88.38.89.94c0,.54-.35.94-.89.94s-.89-.4-.89-.94Z" style="fill:#231815; stroke-width:0px;"/><path d="m665.6,72.86h-2.86l-.23,1.58c.16-.02.31-.03.52-.03.64,0,1.32.16,1.83.51.57.38.97,1.03.97,1.95,0,1.49-1.19,2.7-3.06,2.7-.85,0-1.57-.21-1.97-.44l.29-1.1c.32.17.96.39,1.62.39.85,0,1.64-.5,1.64-1.44,0-.93-.68-1.5-2.14-1.5-.41,0-.71.03-.99.07l.5-3.91h3.89v1.21Z" style="fill:#231815; stroke-width:0px;"/><path d="m667.29,75.33c0-.67-.02-1.21-.05-1.72h1.24l.07.83h.03c.28-.45.8-.96,1.73-.96.75,0,1.32.41,1.56,1.04h.02c.2-.31.44-.55.69-.72.32-.21.67-.32,1.13-.32.96,0,1.88.67,1.88,2.48v3.49h-1.42v-3.28c0-.93-.3-1.51-.99-1.51-.48,0-.83.34-.98.76-.04.14-.07.32-.07.49v3.54h-1.41v-3.43c0-.78-.29-1.36-.96-1.36-.52,0-.88.41-1.01.82-.05.14-.07.32-.07.48v3.49h-1.42v-4.12Z" style="fill:#231815; stroke-width:0px;"/><path d="m677.12,75.33c0-.67-.02-1.21-.05-1.72h1.24l.07.83h.03c.28-.45.8-.96,1.73-.96.75,0,1.32.41,1.56,1.04h.02c.2-.31.44-.55.69-.72.32-.21.67-.32,1.13-.32.96,0,1.88.67,1.88,2.48v3.49h-1.42v-3.28c0-.93-.3-1.51-.99-1.51-.48,0-.83.34-.98.76-.04.14-.07.32-.07.49v3.54h-1.41v-3.43c0-.78-.29-1.36-.96-1.36-.52,0-.88.41-1.01.82-.05.14-.07.32-.07.48v3.49h-1.42v-4.12Z" style="fill:#231815; stroke-width:0px;"/><circle cx="706.42" cy="57.65" r="4.25" style="fill:#d9bb86; stroke-width:0px;"/><path d="m694.26,77.96c.3.18.99.45,1.68.45,1.08,0,1.53-.62,1.53-1.26,0-.92-.84-1.33-1.73-1.33h-.61v-1.06h.58c.66,0,1.51-.31,1.51-1.1,0-.56-.39-.99-1.2-.99-.59,0-1.19.26-1.5.46l-.31-1.05c.42-.29,1.25-.57,2.13-.57,1.56,0,2.35.88,2.35,1.9,0,.81-.47,1.48-1.39,1.82v.02c.91.18,1.65.89,1.65,1.95,0,1.3-1.07,2.36-2.94,2.36-.89,0-1.67-.25-2.07-.51l.31-1.1Z" style="fill:#231815; stroke-width:0px;"/><path d="m700.46,75.33c0-.67-.02-1.21-.05-1.72h1.24l.07.83h.03c.28-.45.8-.96,1.73-.96.75,0,1.32.41,1.56,1.04h.02c.2-.31.44-.55.69-.72.32-.21.67-.32,1.13-.32.96,0,1.88.67,1.88,2.48v3.49h-1.42v-3.28c0-.93-.3-1.51-.99-1.51-.48,0-.83.34-.98.76-.04.14-.07.32-.07.49v3.54h-1.41v-3.43c0-.78-.29-1.36-.96-1.36-.52,0-.88.41-1.01.82-.05.14-.07.32-.07.48v3.49h-1.42v-4.12Z" style="fill:#231815; stroke-width:0px;"/><path d="m710.29,75.33c0-.67-.02-1.21-.05-1.72h1.24l.07.83h.03c.28-.45.8-.96,1.73-.96.75,0,1.32.41,1.56,1.04h.02c.2-.31.44-.55.7-.72.32-.21.67-.32,1.13-.32.96,0,1.88.67,1.88,2.48v3.49h-1.41v-3.28c0-.93-.3-1.51-.99-1.51-.48,0-.83.34-.98.76-.04.14-.07.32-.07.49v3.54h-1.42v-3.43c0-.78-.29-1.36-.95-1.36-.52,0-.88.41-1.01.82-.05.14-.07.32-.07.48v3.49h-1.41v-4.12Z" style="fill:#231815; stroke-width:0px;"/><circle cx="745.63" cy="56.94" r="4.96" style="fill:#d9bb86; stroke-width:0px;"/><path d="m728.97,77.96c.3.18.99.45,1.68.45,1.08,0,1.53-.62,1.53-1.26,0-.92-.84-1.33-1.73-1.33h-.61v-1.06h.58c.66,0,1.51-.31,1.51-1.1,0-.56-.39-.99-1.2-.99-.59,0-1.19.26-1.5.46l-.31-1.05c.42-.29,1.25-.57,2.13-.57,1.56,0,2.35.88,2.35,1.9,0,.81-.47,1.48-1.39,1.82v.02c.91.18,1.65.89,1.65,1.95,0,1.3-1.07,2.36-2.94,2.36-.89,0-1.67-.25-2.07-.51l.31-1.1Z" style="fill:#231815; stroke-width:0px;"/><path d="m735.02,78.64c0-.55.38-.94.89-.94s.88.38.89.94c0,.54-.35.94-.89.94s-.89-.4-.89-.94Z" style="fill:#231815; stroke-width:0px;"/><path d="m742.49,72.86h-2.86l-.23,1.58c.16-.02.31-.03.52-.03.64,0,1.32.16,1.83.51.57.38.97,1.03.97,1.95,0,1.49-1.19,2.7-3.06,2.7-.85,0-1.57-.21-1.97-.44l.29-1.1c.32.17.96.39,1.62.39.85,0,1.64-.5,1.64-1.44,0-.93-.68-1.5-2.14-1.5-.41,0-.71.03-.99.07l.5-3.91h3.89v1.21Z" style="fill:#231815; stroke-width:0px;"/><path d="m744.17,75.33c0-.67-.02-1.21-.05-1.72h1.24l.07.83h.03c.28-.45.8-.96,1.73-.96.75,0,1.32.41,1.56,1.04h.02c.2-.31.44-.55.7-.72.32-.21.67-.32,1.13-.32.96,0,1.88.67,1.88,2.48v3.49h-1.41v-3.28c0-.93-.3-1.51-.99-1.51-.48,0-.83.34-.98.76-.04.14-.07.32-.07.49v3.54h-1.42v-3.43c0-.78-.29-1.36-.95-1.36-.52,0-.88.41-1.01.82-.05.14-.07.32-.07.48v3.49h-1.41v-4.12Z" style="fill:#231815; stroke-width:0px;"/><path d="m754,75.33c0-.67-.02-1.21-.05-1.72h1.24l.07.83h.03c.28-.45.8-.96,1.73-.96.75,0,1.32.41,1.56,1.04h.02c.2-.31.44-.55.7-.72.32-.21.67-.32,1.13-.32.96,0,1.88.67,1.88,2.48v3.49h-1.41v-3.28c0-.93-.3-1.51-.99-1.51-.48,0-.83.34-.98.76-.04.14-.07.32-.07.49v3.54h-1.42v-3.43c0-.78-.29-1.36-.95-1.36-.52,0-.88.41-1.01.82-.05.14-.07.32-.07.48v3.49h-1.41v-4.12Z" style="fill:#231815; stroke-width:0px;"/><circle cx="786.26" cy="56.23" r="5.67" style="fill:#d9bb86; stroke-width:0px;"/><path d="m776.96,79.45v-1.98h-3.4v-.95l3.09-4.87h1.67v4.71h.97v1.1h-.97v1.98h-1.36Zm0-3.09v-2.08c0-.45.02-.9.05-1.36h-.04c-.24.49-.44.88-.68,1.32l-1.35,2.1v.02s2.02,0,2.02,0Z" style="fill:#231815; stroke-width:0px;"/><path d="m780.3,75.33c0-.67-.02-1.21-.05-1.72h1.24l.07.83h.03c.28-.45.8-.96,1.73-.96.75,0,1.32.41,1.56,1.04h.02c.2-.31.44-.55.69-.72.32-.21.67-.32,1.13-.32.96,0,1.88.67,1.88,2.48v3.49h-1.42v-3.28c0-.93-.3-1.51-.99-1.51-.48,0-.83.34-.98.76-.04.14-.07.32-.07.49v3.54h-1.41v-3.43c0-.78-.29-1.36-.96-1.36-.52,0-.88.41-1.01.82-.05.14-.07.32-.07.48v3.49h-1.42v-4.12Z" style="fill:#231815; stroke-width:0px;"/><path d="m790.13,75.33c0-.67-.02-1.21-.05-1.72h1.24l.07.83h.03c.28-.45.8-.96,1.73-.96.75,0,1.32.41,1.56,1.04h.02c.2-.31.44-.55.7-.72.32-.21.67-.32,1.13-.32.96,0,1.88.67,1.88,2.48v3.49h-1.41v-3.28c0-.93-.3-1.51-.99-1.51-.48,0-.83.34-.98.76-.04.14-.07.32-.07.49v3.54h-1.42v-3.43c0-.78-.29-1.36-.95-1.36-.52,0-.88.41-1.01.82-.05.14-.07.32-.07.48v3.49h-1.41v-4.12Z" style="fill:#231815; stroke-width:0px;"/><circle cx="829.02" cy="54.81" r="7.09" style="fill:#d9bb86; stroke-width:0px;"/><path d="m821.37,72.86h-2.86l-.23,1.58c.16-.02.31-.03.52-.03.64,0,1.32.16,1.83.51.57.38.97,1.03.97,1.95,0,1.49-1.19,2.7-3.06,2.7-.85,0-1.57-.21-1.97-.44l.29-1.1c.32.17.96.39,1.62.39.85,0,1.64-.5,1.64-1.44,0-.93-.68-1.5-2.14-1.5-.41,0-.71.03-.99.07l.5-3.91h3.89v1.21Z" style="fill:#231815; stroke-width:0px;"/><path d="m823.06,75.33c0-.67-.02-1.21-.05-1.72h1.24l.07.83h.03c.28-.45.8-.96,1.73-.96.75,0,1.32.41,1.56,1.04h.02c.2-.31.44-.55.69-.72.32-.21.67-.32,1.13-.32.96,0,1.88.67,1.88,2.48v3.49h-1.42v-3.28c0-.93-.3-1.51-.99-1.51-.48,0-.83.34-.98.76-.04.14-.07.32-.07.49v3.54h-1.41v-3.43c0-.78-.29-1.36-.96-1.36-.52,0-.88.41-1.01.82-.05.14-.07.32-.07.48v3.49h-1.42v-4.12Z" style="fill:#231815; stroke-width:0px;"/><path d="m832.89,75.33c0-.67-.02-1.21-.05-1.72h1.24l.07.83h.03c.28-.45.8-.96,1.73-.96.75,0,1.32.41,1.56,1.04h.02c.2-.31.44-.55.7-.72.32-.21.67-.32,1.13-.32.96,0,1.88.67,1.88,2.48v3.49h-1.41v-3.28c0-.93-.3-1.51-.99-1.51-.48,0-.83.34-.98.76-.04.14-.07.32-.07.49v3.54h-1.42v-3.43c0-.78-.29-1.36-.95-1.36-.52,0-.88.41-1.01.82-.05.14-.07.32-.07.48v3.49h-1.41v-4.12Z" style="fill:#231815; stroke-width:0px;"/><circle cx="874.61" cy="53.4" r="8.5" style="fill:#d9bb86; stroke-width:0px;"/><path d="m866.76,72.68c-.21,0-.44,0-.73.04-1.56.2-2.31,1.21-2.5,2.29h.03c.37-.43.93-.74,1.68-.74,1.3,0,2.29.96,2.29,2.51s-1.03,2.78-2.65,2.78c-1.82,0-2.83-1.42-2.83-3.34,0-1.52.53-2.73,1.32-3.51.68-.67,1.6-1.05,2.64-1.15.32-.04.56-.04.74-.04v1.14Zm-.69,4.19c0-.9-.47-1.54-1.29-1.54-.52,0-.99.32-1.21.79-.05.11-.09.26-.09.48.02,1.07.49,1.89,1.39,1.89.73,0,1.2-.66,1.2-1.62Z" style="fill:#231815; stroke-width:0px;"/><path d="m868.65,75.33c0-.67-.02-1.21-.05-1.72h1.24l.07.83h.03c.28-.45.8-.96,1.73-.96.75,0,1.32.41,1.56,1.04h.02c.2-.31.44-.55.69-.72.32-.21.67-.32,1.13-.32.96,0,1.88.67,1.88,2.48v3.49h-1.41v-3.28c0-.93-.3-1.51-.99-1.51-.48,0-.83.34-.98.76-.04.14-.07.32-.07.49v3.54h-1.42v-3.43c0-.78-.29-1.36-.95-1.36-.52,0-.88.41-1.01.82-.05.14-.07.32-.07.48v3.49h-1.41v-4.12Z" style="fill:#231815; stroke-width:0px;"/><path d="m878.48,75.33c0-.67-.02-1.21-.05-1.72h1.24l.07.83h.03c.28-.45.8-.96,1.73-.96.75,0,1.32.41,1.56,1.04h.02c.2-.31.44-.55.69-.72.32-.21.67-.32,1.13-.32.96,0,1.88.67,1.88,2.48v3.49h-1.42v-3.28c0-.93-.3-1.51-.99-1.51-.48,0-.83.34-.98.76-.04.14-.07.32-.07.49v3.54h-1.41v-3.43c0-.78-.29-1.36-.96-1.36-.52,0-.88.41-1.01.82-.05.14-.07.32-.07.48v3.49h-1.42v-4.12Z" style="fill:#231815; stroke-width:0px;"/><circle cx="923.11" cy="51.98" r="9.92" style="fill:#d9bb86; stroke-width:0px;"/><path d="m915.85,71.65v.92l-3.17,6.87h-1.51l3.16-6.57v-.02h-3.54v-1.21h5.06Z" style="fill:#231815; stroke-width:0px;"/><path d="m917.16,75.33c0-.67-.02-1.21-.05-1.72h1.24l.07.83h.03c.28-.45.8-.96,1.73-.96.75,0,1.32.41,1.56,1.04h.02c.2-.31.44-.55.69-.72.32-.21.67-.32,1.13-.32.96,0,1.88.67,1.88,2.48v3.49h-1.41v-3.28c0-.93-.3-1.51-.99-1.51-.48,0-.83.34-.98.76-.04.14-.07.32-.07.49v3.54h-1.42v-3.43c0-.78-.29-1.36-.95-1.36-.52,0-.88.41-1.01.82-.05.14-.07.32-.07.48v3.49h-1.41v-4.12Z" style="fill:#231815; stroke-width:0px;"/><path d="m926.98,75.33c0-.67-.02-1.21-.05-1.72h1.24l.07.83h.03c.28-.45.8-.96,1.73-.96.75,0,1.32.41,1.56,1.04h.02c.2-.31.44-.55.69-.72.32-.21.67-.32,1.13-.32.96,0,1.88.67,1.88,2.48v3.49h-1.42v-3.28c0-.93-.3-1.51-.99-1.51-.48,0-.83.34-.98.76-.04.14-.07.32-.07.49v3.54h-1.41v-3.43c0-.78-.29-1.36-.96-1.36-.52,0-.88.41-1.01.82-.05.14-.07.32-.07.48v3.49h-1.42v-4.12Z" style="fill:#231815; stroke-width:0px;"/><circle cx="974.3" cy="50.56" r="11.34" style="fill:#d9bb86; stroke-width:0px;"/><path d="m961.76,77.44c0-.97.56-1.64,1.42-2.04v-.03c-.79-.4-1.15-1.06-1.15-1.73,0-1.28,1.1-2.12,2.52-2.12,1.6,0,2.35.98,2.35,1.95,0,.66-.33,1.34-1.18,1.77v.03c.83.35,1.45,1.02,1.45,1.99,0,1.38-1.14,2.31-2.75,2.31-1.75,0-2.67-1.03-2.67-2.13Zm3.95-.07c0-.8-.57-1.24-1.38-1.49-.7.22-1.1.74-1.1,1.38-.02.68.46,1.28,1.25,1.28.74,0,1.23-.49,1.23-1.18Zm-2.31-3.8c0,.64.5,1.02,1.21,1.25.51-.18.92-.62.92-1.2s-.31-1.11-1.06-1.11c-.7,0-1.07.49-1.07,1.06Z" style="fill:#231815; stroke-width:0px;"/><path d="m968.34,75.33c0-.67-.02-1.21-.05-1.72h1.24l.07.83h.03c.28-.45.8-.96,1.73-.96.75,0,1.32.41,1.56,1.04h.02c.2-.31.44-.55.69-.72.32-.21.67-.32,1.13-.32.96,0,1.88.67,1.88,2.48v3.49h-1.41v-3.28c0-.93-.3-1.51-.99-1.51-.48,0-.83.34-.98.76-.04.14-.07.32-.07.49v3.54h-1.42v-3.43c0-.78-.29-1.36-.95-1.36-.52,0-.88.41-1.01.82-.05.14-.07.32-.07.48v3.49h-1.41v-4.12Z" style="fill:#231815; stroke-width:0px;"/><path d="m978.16,75.33c0-.67-.02-1.21-.05-1.72h1.24l.07.83h.03c.28-.45.8-.96,1.73-.96.75,0,1.32.41,1.56,1.04h.02c.2-.31.44-.55.69-.72.32-.21.67-.32,1.13-.32.96,0,1.88.67,1.88,2.48v3.49h-1.42v-3.28c0-.93-.3-1.51-.99-1.51-.48,0-.83.34-.98.76-.04.14-.07.32-.07.49v3.54h-1.41v-3.43c0-.78-.29-1.36-.96-1.36-.52,0-.88.41-1.01.82-.05.14-.07.32-.07.48v3.49h-1.42v-4.12Z" style="fill:#231815; stroke-width:0px;"/><circle cx="1029.81" cy="47.73" r="14.17" style="fill:#d9bb86; stroke-width:0px;"/><path d="m1016.51,72.97h-.02l-1.41.71-.25-1.1,1.88-.94h1.21v7.8h-1.4v-6.48Z" style="fill:#231815; stroke-width:0px;"/><path d="m1025.79,75.5c0,2.56-.98,4.07-2.75,4.07s-2.66-1.65-2.67-4c0-2.42.99-4.05,2.76-4.05s2.66,1.71,2.66,3.97Zm-3.96.07c0,1.89.48,2.89,1.27,2.89.83,0,1.25-1.06,1.25-2.92s-.4-2.88-1.25-2.88c-.76,0-1.27.98-1.27,2.92Z" style="fill:#231815; stroke-width:0px;"/><path d="m1026.95,75.33c0-.67-.02-1.21-.05-1.72h1.24l.07.83h.03c.28-.45.8-.96,1.73-.96.75,0,1.32.41,1.56,1.04h.02c.2-.31.44-.55.69-.72.32-.21.67-.32,1.13-.32.96,0,1.88.67,1.88,2.48v3.49h-1.42v-3.28c0-.93-.3-1.51-.99-1.51-.48,0-.83.34-.98.76-.04.14-.07.32-.07.49v3.54h-1.41v-3.43c0-.78-.29-1.36-.96-1.36-.52,0-.88.41-1.01.82-.05.14-.07.32-.07.48v3.49h-1.42v-4.12Z" style="fill:#231815; stroke-width:0px;"/><path d="m1036.78,75.33c0-.67-.02-1.21-.05-1.72h1.24l.07.83h.03c.28-.45.8-.96,1.73-.96.75,0,1.32.41,1.56,1.04h.02c.2-.31.44-.55.69-.72.32-.21.67-.32,1.13-.32.96,0,1.88.67,1.88,2.48v3.49h-1.42v-3.28c0-.93-.3-1.51-.99-1.51-.48,0-.83.34-.98.76-.04.14-.07.32-.07.49v3.54h-1.41v-3.43c0-.78-.29-1.36-.96-1.36-.52,0-.88.41-1.01.82-.05.14-.07.32-.07.48v3.49h-1.42v-4.12Z" style="fill:#231815; stroke-width:0px;"/></svg>