<?xml version="1.0" encoding="UTF-8"?><svg id="uuid-4fca3a29-f742-4afb-8f8d-22fe2a420ab9" xmlns="http://www.w3.org/2000/svg" width="1100" height="150" viewBox="0 0 1100 150"><rect x="25" y="19.41" width="392.56" height="127.16" style="fill:#fff; stroke-width:0px;"/><polyline points="25 146.58 25 19.41 417.56 19.41" style="fill:none; stroke:#b7b8b7; stroke-linecap:round; stroke-linejoin:round; stroke-width:3.01px;"/><circle cx="90.9" cy="91.54" r="24.04" style="fill:#d9bb86; stroke-width:0px;"/><line x1="90.9" y1="24.3" x2="90.9" y2="62.61" style="fill:none; stroke:#231815; stroke-linecap:round; stroke-linejoin:round; stroke-width:2.27px;"/><polygon points="87.5 25.3 90.9 19.41 94.3 25.3 87.5 25.3" style="fill:#231815; stroke-width:0px;"/><polygon points="87.5 61.62 90.9 67.5 94.3 61.62 87.5 61.62" style="fill:#231815; stroke-width:0px;"/><path d="m108.7,35.86c.11-.09.28-.14.52-.14h3.04v-.89c0-.43.23-.64.68-.64s.69.21.69.64v.89h2.97c.45,0,.68.2.68.59s-.23.59-.68.59h-7.39c-.45,0-.68-.2-.68-.59,0-.2.05-.35.16-.45Zm.28,8.74c0-.91.46-1.37,1.39-1.37h1.62l.04-.23.05-.25.05-.48h-1.55c-.89,0-1.33-.44-1.33-1.32v-2.88c0-.5.21-.75.64-.75s.64.25.64.75v2.74c0,.17.11.26.34.29h4.11c.2,0,.31-.09.32-.29v-2.74c0-.49.21-.73.64-.73s.64.24.64.73v2.88c0,.88-.45,1.32-1.35,1.32h-1.8l-.07.34-.11.62h2.4c.93,0,1.39.46,1.39,1.37v3.84c0,.62-.14,1.07-.41,1.34-.27.28-.71.4-1.3.37h-.82c-.44,0-.66-.23-.66-.68s.22-.66.66-.66h.6c.39,0,.59-.2.59-.59v-3.29c0-.18-.04-.31-.13-.39s-.23-.13-.42-.14h-2.19l-.43,1.74,1.44-.21-.28-.71c0-.29.17-.43.52-.43.25,0,.54.36.87,1.07.33.72.5,1.16.5,1.3,0,.34-.18.52-.55.52-.24,0-.43-.21-.59-.64l-.02-.11-.57.11-1.46.28c-.75.15-1.18.23-1.3.23-.42,0-.62-.21-.62-.62,0-.34.33-.57.98-.68l.32-1.85h-.93c-.18,0-.31.04-.39.12s-.13.22-.14.41v4.5c0,.26-.06.46-.18.59s-.28.2-.5.2c-.44,0-.66-.26-.66-.78v-4.84Zm2.26-4.98c.08-.05.23-.13.43-.25.2-.12.39-.24.55-.37l-.87-.62c-.14-.11-.24-.19-.3-.26-.06-.06-.09-.14-.09-.22,0-.32.18-.48.53-.48.17,0,.69.3,1.57.91l.71-.69c.25-.25.45-.37.6-.37.36,0,.53.15.53.46,0,.17-.34.57-1.01,1.21v.04c.74.53,1.1.91,1.1,1.14,0,.36-.18.53-.55.53-.06,0-.14-.03-.23-.09-.1-.06-.2-.13-.3-.21l-.28-.23c-.23-.2-.41-.35-.55-.44h-.04c-.94.74-1.52,1.1-1.76,1.1-.36,0-.53-.17-.53-.52,0-.2.17-.41.5-.62Zm6.76,8.67v-8.88h-.04c-.34.68-.62,1.01-.84,1.01-.31,0-.46-.18-.46-.55,0-.15.09-.39.27-.71.71-1.25,1.22-2.62,1.51-4.11.12-.58.37-.87.77-.87.45,0,.68.18.68.55l-.04.21-.57,1.6-.46,1.09h2.08l.52-1.96c.13-.47.27-.83.41-1.06.14-.23.3-.35.48-.35.45,0,.68.21.68.62,0,.25-.28,1.16-.84,2.74h1.65c.52,0,.78.21.78.62s-.26.62-.78.62h-1.57v2.26h1.25c.5,0,.75.21.75.62s-.25.62-.75.62h-1.25v2.26h1.25c.5,0,.75.21.75.62s-.25.62-.75.62h-1.25v2.65h1.76c.52,0,.78.21.78.62s-.26.62-.78.62h-4.48c-1.1.09-1.61-.4-1.51-1.5Zm3.03-7.15v-2.26h-1.49c-.23,0-.34.12-.34.36v1.9h1.83Zm0,3.51v-2.26h-1.83v2.26h1.83Zm-1.26,3.9h1.26v-2.65h-1.83v2.08c0,.39.19.58.57.57Z" style="stroke-width:0px;"/><path d="m126.94,49.43c0-.37.41-.67,1.23-.91,2.23-.64,3.41-2.08,3.54-4.31h-3.68c-.55,0-.82-.21-.82-.64s.27-.66.82-.66h13.72c.52,0,.78.22.78.66,0,.21-.06.37-.19.48-.12.11-.32.16-.6.16h-4.41v3.47c0,.38.12.61.36.69.23.08.75.12,1.57.12.5,0,.86,0,1.09-.03.23-.02.38-.06.46-.12.27-.2.44-.64.5-1.32.02-.32.1-.55.23-.69.13-.14.32-.21.57-.21.27,0,.47.06.6.19.13.12.2.32.2.6,0,.95-.2,1.69-.59,2.22-.38.5-1.28.75-2.69.75l-.73-.02h-.48c-.07,0-.27,0-.6-.02s-.63-.05-.89-.11c-.68-.15-1.01-.71-1.01-1.66v-3.88h-2.71c-.15,1.59-.58,2.82-1.28,3.7-.74.91-1.74,1.58-3.01,2.01-.55.19-.95.29-1.21.29-.51,0-.77-.26-.77-.78Zm.2-11.66c-.05-.64.07-1.1.36-1.39.29-.29.75-.4,1.39-.36h5.13v-1.1c0-.51.26-.76.77-.76s.77.25.77.76v1.1h5.39c.56,0,.98.14,1.26.43.29.28.42.72.41,1.32v1.57c0,.28-.06.49-.18.62s-.3.2-.53.2-.42-.06-.53-.2-.18-.34-.18-.62v-1.17c0-.52-.25-.77-.75-.75h-11.12c-.5,0-.74.25-.73.75v1.17c0,.55-.24.82-.71.82s-.73-.27-.73-.82v-1.57Zm2.54,1.76c.12-.11.33-.16.61-.16h9.13c.28,0,.49.05.62.16.13.11.2.27.2.5s-.07.39-.2.5-.34.16-.62.16h-9.13c-.28,0-.49-.05-.61-.16s-.19-.27-.19-.5.06-.39.19-.5Z" style="stroke-width:0px;"/><path d="m157.94,49.33c-.69-.69-1.28-1.44-1.76-2.24-.82.82-1.8,1.55-2.94,2.21-1.04.61-1.8.91-2.26.91s-.69-.25-.69-.75c0-.21.06-.37.18-.48.09-.07.52-.25,1.26-.53,1.34-.49,2.59-1.37,3.75-2.65-.9-1.89-1.47-4.3-1.69-7.24h-5.5c-.28,0-.47.08-.55.23-.07.14-.11.87-.11,2.19h3.54c.97,0,1.46.51,1.46,1.53,0,2.24-.15,3.63-.45,4.16-.39.69-1.32,1.03-2.78,1.03-.49,0-.73-.25-.73-.77s.24-.73.73-.73h.66c.64,0,1-.32,1.09-.96.1-.63.14-1.4.14-2.31,0-.19-.06-.33-.17-.44-.11-.1-.27-.15-.47-.15h-3.03c0,2.28-.15,4.07-.46,5.38-.19.79-.4,1.39-.64,1.8s-.5.6-.78.6c-.5,0-.75-.27-.75-.82,0-.17.13-.52.39-1.05.25-.52.45-1.32.61-2.38.13-.93.2-2.16.2-3.7l-.04-3.43c-.02-1.09.51-1.64,1.6-1.64h5.96l-.04-2.15c0-.51.24-.76.73-.76s.75.28.75.85v2.06h5c.59,0,.89.24.89.73s-.3.73-.89.73h-4.91c.15,2.33.55,4.32,1.19,5.98l.18-.21c.74-1.13,1.25-2.15,1.53-3.08.2-.62.49-.93.85-.93.47,0,.71.21.71.62,0,.26-.27.94-.8,2.05-.51,1.06-1.09,2.05-1.74,2.99.27.47.62.97,1.05,1.5.45.56.78.84,1,.84.29,0,.46-.4.52-1.19.06-.75.29-1.12.69-1.12.51,0,.77.26.77.77,0,.77-.16,1.55-.48,2.33-.31.76-.69,1.14-1.14,1.14-.5,0-1.04-.3-1.64-.89Zm-.3-14.97c.2,0,.52.23.94.69.18.19.31.37.41.53.09.17.14.29.14.37,0,.45-.27.68-.8.68-.28,0-.71-.42-1.28-1.25-.13-.19-.2-.31-.2-.37,0-.44.26-.66.78-.66Z" style="stroke-width:0px;"/><path d="m172.89,49.83c-2.25-.02-3.76-.14-4.5-.36-.88-.25-1.6-.65-2.17-1.21l-.04-.02c-1.15,1-1.9,1.5-2.26,1.5-.46,0-.69-.24-.69-.71,0-.23.06-.42.2-.57.13-.15.33-.29.61-.39l1.28-.66v-3.38c0-.18-.05-.32-.14-.42-.09-.1-.24-.15-.43-.15h-.87c-.24,0-.41-.05-.52-.15-.11-.1-.16-.26-.16-.49s.05-.37.16-.47c.11-.1.28-.15.52-.15h1.3c.52,0,.9.11,1.12.32.23.21.33.56.3,1.03v3.45c.37.45.74.76,1.12.93.87.39,2.07.59,3.61.6l2.54.02c1.36,0,2.92-.02,4.66-.05h.2c.45,0,.68.21.68.64,0,.47-.34.71-1.01.71-2.44,0-4.28,0-5.5-.02Zm-8.7-11.92c.19,0,.68.17,1.48.5.77.33,1.16.68,1.16,1.03,0,.49-.23.73-.69.73-.14,0-.41-.11-.8-.32-.45-.25-.9-.44-1.33-.57-.17-.05-.29-.13-.37-.26-.08-.12-.12-.26-.12-.42,0-.46.23-.69.69-.69Zm.82-3.4c.15,0,.62.17,1.41.52.37.17.65.34.84.53.19.18.28.37.28.56,0,.5-.23.75-.69.75-.13,0-.44-.14-.93-.41l-.93-.48c-.44-.22-.66-.48-.66-.76,0-.46.23-.69.68-.69Zm2.65,7.14c0-.79.4-1.19,1.21-1.19h3.61v-.59h-2.65c-.38,0-.67-.09-.88-.28-.21-.19-.31-.47-.31-.84v-2.6c0-.37.1-.65.3-.84.2-.19.5-.29.89-.29h2.21l.12-.3c.18-.44.42-.66.73-.66.2,0,.36.04.47.13.11.09.16.21.15.37,0,.07-.07.23-.21.46h3.56c.79,0,1.19.37,1.19,1.12v2.6c0,.37-.1.65-.3.84s-.5.28-.89.28h-3.1v.59h4.15c.79,0,1.19.39,1.19,1.17v.73c0,.4-.2.6-.6.6s-.62-.2-.62-.6v-.55c0-.27-.15-.42-.46-.45h-2.4v.77c0,.07.05.13.15.17.1.04.24.06.42.06h.37c.26,0,.42-.13.48-.39.02-.13.07-.22.15-.28.08-.05.19-.08.35-.08.34,0,.52.15.52.45,0,.34-.09.61-.27.8-.18.19-.4.29-.66.3l-.69.02-.57-.02c-.45-.02-.77-.07-.96-.14-.23-.09-.34-.29-.36-.57v-1.09h-1.64c-.23,1.38-1.1,2.06-2.63,2.06-.18,0-.31-.04-.39-.11s-.12-.19-.12-.36c0-.24.16-.38.48-.44.56-.11.95-.25,1.19-.44.24-.18.38-.42.43-.72h-1.89c-.3,0-.46.16-.48.48v.62c0,.39-.21.59-.62.59s-.6-.2-.6-.59v-.82Zm.87,2.12h3.92v-.75c0-.36.21-.53.64-.53s.62.18.62.53v.75h4.57c.38,0,.57.15.57.46s-.19.46-.57.46h-5.78l-.12.61h4.41c.64,0,.96.27.96.82,0,.91-.24,1.5-.73,1.76-.49.26-1.26.39-2.31.39-.4,0-.6-.17-.6-.5s.24-.5.71-.5c.76,0,1.23-.05,1.42-.16.19-.11.28-.33.28-.66,0-.15-.11-.23-.32-.23h-4.2c-.33.57-.81,1.01-1.42,1.32-.65.32-1.23.48-1.73.48-.37,0-.55-.19-.55-.57,0-.27.17-.45.5-.52,1.45-.34,2.27-1.09,2.47-2.24h-2.74c-.37,0-.55-.15-.55-.46s.18-.46.55-.46Zm8.24-7.31v-.25c0-.12-.02-.2-.07-.25-.05-.05-.13-.08-.25-.09h-6.23c-.12,0-.21.03-.26.08s-.08.14-.08.26v.25h6.89Zm0,1.28v-.53h-6.89v.53h6.89Zm-6.81,1.2c.05.05.14.09.26.1h6.23c.21,0,.32-.11.32-.34v-.21h-6.89v.21c0,.11.03.19.08.24Z" style="stroke-width:0px;"/><path d="m187.68,49.59v-1.21l-.2.05c-2.82.93-4.57,1.39-5.23,1.39-.45,0-.68-.24-.68-.71,0-.36.18-.58.53-.66l.94-.21v-6.55h-.94c-.24,0-.41-.05-.52-.15-.11-.1-.17-.26-.17-.47,0-.39.23-.59.69-.59h14.86c.47,0,.71.2.71.61s-.24.6-.71.6h-7.97v7.9c0,.53-.22.8-.66.8s-.66-.27-.66-.8Zm-4.29-13.53c0-.51.12-.88.35-1.11s.6-.33,1.09-.31h9.4c.53,0,.92.11,1.16.34s.34.59.3,1.09v2.12c0,.52-.12.9-.35,1.14s-.6.34-1.11.32h-9.4c-.51,0-.88-.12-1.12-.35s-.34-.6-.32-1.11v-2.12Zm4.29,6.75v-1.12h-3.31v1.12h3.31Zm0,2.28v-1.21h-3.31v1.21h3.31Zm0,2.12v-1.05h-3.31v1.81c1.19-.24,2.29-.49,3.31-.76Zm6.55-10.59v-.39c0-.34-.18-.52-.53-.53h-8.36c-.33,0-.51.18-.53.53v.39h9.43Zm-8.9,1.97h8.36c.36,0,.53-.18.53-.55v-.43h-9.43v.43c0,.34.18.53.53.55Zm4.24,10.64c.11-.12.27-.23.5-.32.85-.37,1.58-.78,2.17-1.23-1.13-1.13-1.69-2.06-1.69-2.81,0-.37.23-.55.68-.55.31,0,.55.21.73.64.25.64.66,1.25,1.23,1.81l.04.04c.57-.57,1.03-1.17,1.37-1.82l.34-.64s.04-.09.08-.16c.04-.07.06-.13.06-.18,0-.13-.08-.2-.25-.2h-4.32c-.5,0-.75-.2-.75-.6s.25-.61.75-.61h5.13c.38,0,.66.06.85.18.19.12.28.31.28.57s-.15.67-.46,1.25c-.36.67-.67,1.2-.94,1.62-.25.37-.63.83-1.14,1.39.66.45,1.54.82,2.62,1.1.57.14.85.4.85.78,0,.51-.25.76-.75.76-.38,0-.97-.2-1.76-.59-.91-.45-1.56-.83-1.94-1.12-1.4,1.19-2.44,1.78-3.13,1.78-.46,0-.69-.23-.69-.69,0-.15.05-.29.16-.41Z" style="stroke-width:0px;"/><path d="m200.3,41.85c.98-1.25,1.78-2.67,2.38-4.29.25-.69.56-1.03.93-1.03.51,0,.77.24.77.71,0,.55-.52,1.75-1.57,3.61-.51.91-.97,1.61-1.37,2.08s-.73.71-.98.71-.45-.06-.57-.19c-.12-.12-.18-.32-.18-.6,0-.18.2-.52.59-1.01Zm-.23,7.56c0-.49.43-.75,1.28-.78,2.69-.08,4.86-.52,6.5-1.32,1.8-.87,3.26-2.25,4.36-4.15.38-.64.72-.96,1.03-.96.24,0,.44.08.6.25.17.19.25.35.25.48,0,.34-.48,1.1-1.44,2.28-2.74,3.32-6.65,4.98-11.73,4.98-.57,0-.85-.26-.85-.78Zm4.68-4.78c.14-.12.37-.19.68-.19h1c.45,0,.69-.24.71-.73v-8.67c0-.57.25-.85.75-.85s.75.29.75.85v8.97c0,.64-.18,1.14-.53,1.51-.32.34-.85.5-1.6.48h-1.07c-.59,0-.89-.27-.89-.8,0-.26.07-.45.21-.58Zm6.8-8.21c.28,0,1.07.63,2.35,1.89,1.29,1.28,1.94,2.1,1.94,2.46,0,.55-.27.82-.82.82-.26,0-.52-.18-.77-.55-.25-.37-.62-.81-1.1-1.32-.33-.34-.99-.98-1.98-1.9-.26-.24-.39-.46-.39-.68,0-.47.25-.71.77-.71Z" style="stroke-width:0px;"/><path d="m230.84,49.81c-.9-.4-2.01-.83-3.33-1.26l-.3-.11h-.02c-1.51,1.01-3.8,1.6-6.87,1.76l-1.01.04c-.51.01-.77-.23-.77-.73,0-.11.02-.19.06-.26.04-.07.1-.13.19-.19.17-.12.66-.18,1.5-.2,2.4-.07,4.16-.37,5.3-.89-.9-.2-1.82-.37-2.74-.52-1.01-.14-1.51-.43-1.51-.87,0-.26.23-.65.68-1.17l.41-.55h-3.83c-.47,0-.71-.21-.71-.64s.24-.62.71-.62h4.66l.84-1.42h-3.38c-1.03,0-1.55-.48-1.55-1.44v-1.58c0-1.02.52-1.51,1.55-1.48h2.51v-1.42h-4.31c-.53,0-.8-.22-.8-.66s.27-.64.8-.64h14.15c.52,0,.78.22.78.66s-.26.64-.78.64h-4.57v1.42h2.76c.53,0,.93.12,1.18.36.25.24.38.61.38,1.11v1.55c0,1.02-.52,1.51-1.57,1.48h-5.64l-.16.32-.64,1.1h8.56c.5,0,.75.21.75.62s-.25.64-.75.64h-3.36c-.5,1.09-1.04,1.96-1.64,2.6,1.06.31,2.08.64,3.06,1,.57.2.99.39,1.26.58.27.18.41.37.41.56,0,.51-.23.76-.69.76-.23,0-.75-.18-1.57-.55Zm-10.09-8.97c.12.11.28.17.5.18h1.98v-2.19h-1.98c-.21,0-.38.05-.49.16-.11.11-.17.26-.19.46v.94c0,.19.06.34.18.45Zm2.85,5.62l3.33.62h.02c.59-.53,1.1-1.28,1.51-2.22h-4.43l-.66.91c-.12.17-.18.31-.18.44,0,.1.14.18.41.25Zm3.59-8.79v-1.42h-2.65v1.42h2.65Zm0,3.35v-2.19h-2.65v2.19h2.65Zm3.54,0c.42,0,.63-.21.66-.62v-.94c0-.4-.22-.61-.66-.62h-2.24v2.19h2.24Z" style="stroke-width:0px;"/><path d="m241.96,48.14c-.32-.13-.48-.36-.48-.69,0-.21.07-.39.2-.54s.31-.22.52-.22c.11,0,.22.02.34.07.87.34,1.81.52,2.83.52s1.78-.16,2.38-.48c.6-.32.9-.81.9-1.48,0-1.48-1.31-2.22-3.92-2.22h-.28c-.2,0-.38-.08-.53-.23s-.23-.33-.23-.53.08-.38.23-.53.33-.23.53-.23h.11c1.2,0,2.11-.18,2.72-.54.62-.36.93-.89.93-1.59,0-.58-.24-1.03-.73-1.35-.49-.32-1.17-.48-2.06-.48-1,0-1.92.2-2.76.59-.12.05-.23.07-.32.07-.18,0-.33-.07-.47-.2-.14-.13-.21-.29-.21-.48,0-.27.12-.48.37-.62,1.13-.61,2.3-.91,3.52-.91,1.36,0,2.42.28,3.18.84s1.13,1.35,1.13,2.38c0,1.45-.71,2.44-2.12,2.97.75.18,1.36.53,1.84,1.05.48.52.72,1.23.72,2.12,0,1.08-.42,1.92-1.27,2.54s-1.97.92-3.35.92-2.59-.24-3.72-.71Z" style="stroke-width:0px;"/><path d="m253.25,48.52c-.16-.16-.24-.35-.24-.58v-7.63c0-.23.08-.42.24-.59s.35-.25.58-.25.42.08.59.25.25.36.25.59v.66c.37-.5.79-.89,1.26-1.17.47-.28,1.06-.42,1.74-.42.64,0,1.2.17,1.68.51.48.34.83.77,1.04,1.31.74-1.21,1.83-1.82,3.27-1.82.69,0,1.25.17,1.69.5.43.32.75.74.97,1.26.22.52.33,1.08.33,1.67v5.12c0,.23-.08.42-.25.58s-.36.24-.59.24-.42-.08-.58-.24-.24-.35-.24-.58v-4.8c0-.79-.14-1.36-.42-1.71-.28-.34-.74-.52-1.38-.52-.57,0-1.05.15-1.44.44-.39.29-.76.71-1.1,1.25v5.34c0,.23-.08.42-.25.58s-.36.24-.59.24-.42-.08-.58-.24-.24-.35-.24-.58v-4.8c0-.79-.14-1.36-.42-1.71-.28-.34-.74-.52-1.38-.52-.57,0-1.05.15-1.44.44-.39.29-.76.71-1.1,1.25v5.34c0,.23-.08.42-.25.58s-.36.24-.59.24-.42-.08-.58-.24Z" style="stroke-width:0px;"/><path d="m269.59,48.52c-.16-.16-.24-.35-.24-.58v-7.63c0-.23.08-.42.24-.59s.35-.25.58-.25.42.08.59.25.25.36.25.59v.66c.37-.5.79-.89,1.26-1.17.47-.28,1.06-.42,1.74-.42.64,0,1.2.17,1.68.51.48.34.83.77,1.04,1.31.74-1.21,1.83-1.82,3.27-1.82.69,0,1.25.17,1.69.5.43.32.75.74.97,1.26.22.52.33,1.08.33,1.67v5.12c0,.23-.08.42-.25.58s-.36.24-.59.24-.42-.08-.58-.24-.24-.35-.24-.58v-4.8c0-.79-.14-1.36-.42-1.71-.28-.34-.74-.52-1.38-.52-.57,0-1.05.15-1.44.44-.39.29-.76.71-1.1,1.25v5.34c0,.23-.08.42-.25.58s-.36.24-.59.24-.42-.08-.58-.24-.24-.35-.24-.58v-4.8c0-.79-.14-1.36-.42-1.71-.28-.34-.74-.52-1.38-.52-.57,0-1.05.15-1.44.44-.39.29-.76.71-1.1,1.25v5.34c0,.23-.08.42-.25.58s-.36.24-.59.24-.42-.08-.58-.24Z" style="stroke-width:0px;"/><path d="m116.45,117.65c-.32-.13-.48-.36-.48-.69,0-.21.07-.39.2-.54s.31-.22.52-.22c.11,0,.22.02.34.07.87.34,1.81.52,2.83.52s1.78-.16,2.38-.48c.6-.32.9-.81.9-1.48,0-1.48-1.31-2.22-3.92-2.22h-.28c-.2,0-.38-.08-.53-.23s-.23-.33-.23-.53.08-.38.23-.53.33-.23.53-.23h.11c1.2,0,2.11-.18,2.72-.54.62-.36.93-.89.93-1.59,0-.58-.24-1.03-.73-1.35-.49-.32-1.17-.48-2.06-.48-1,0-1.92.2-2.76.59-.12.05-.23.07-.32.07-.18,0-.33-.07-.47-.2-.14-.13-.21-.29-.21-.48,0-.27.12-.48.37-.62,1.13-.61,2.3-.91,3.52-.91,1.36,0,2.42.28,3.18.84s1.13,1.35,1.13,2.38c0,1.45-.71,2.44-2.12,2.97.75.18,1.36.53,1.84,1.05.48.52.72,1.23.72,2.12,0,1.08-.42,1.92-1.27,2.54s-1.97.92-3.35.92-2.59-.24-3.72-.71Z" style="fill:#d9bb86; stroke-width:0px;"/><path d="m127.75,118.03c-.16-.16-.24-.35-.24-.58v-7.63c0-.23.08-.42.24-.59s.35-.25.58-.25.42.08.59.25.25.36.25.59v.66c.37-.5.79-.89,1.26-1.17.47-.28,1.06-.42,1.74-.42.64,0,1.2.17,1.68.51.48.34.83.77,1.04,1.31.74-1.21,1.83-1.82,3.27-1.82.69,0,1.25.17,1.69.5.43.32.75.74.97,1.26.22.52.33,1.08.33,1.67v5.12c0,.23-.08.42-.25.58s-.36.24-.59.24-.42-.08-.58-.24-.24-.35-.24-.58v-4.8c0-.79-.14-1.36-.42-1.71-.28-.34-.74-.52-1.38-.52-.57,0-1.05.15-1.44.44-.39.29-.76.71-1.1,1.25v5.34c0,.23-.08.42-.25.58s-.36.24-.59.24-.42-.08-.58-.24-.24-.35-.24-.58v-4.8c0-.79-.14-1.36-.42-1.71-.28-.34-.74-.52-1.38-.52-.57,0-1.05.15-1.44.44-.39.29-.76.71-1.1,1.25v5.34c0,.23-.08.42-.25.58s-.36.24-.59.24-.42-.08-.58-.24Z" style="fill:#d9bb86; stroke-width:0px;"/><path d="m144.08,118.03c-.16-.16-.24-.35-.24-.58v-7.63c0-.23.08-.42.24-.59s.35-.25.58-.25.42.08.59.25.25.36.25.59v.66c.37-.5.79-.89,1.26-1.17.47-.28,1.06-.42,1.74-.42.64,0,1.2.17,1.68.51.48.34.83.77,1.04,1.31.74-1.21,1.83-1.82,3.27-1.82.69,0,1.25.17,1.69.5.43.32.75.74.97,1.26.22.52.33,1.08.33,1.67v5.12c0,.23-.08.42-.25.58s-.36.24-.59.24-.42-.08-.58-.24-.24-.35-.24-.58v-4.8c0-.79-.14-1.36-.42-1.71-.28-.34-.74-.52-1.38-.52-.57,0-1.05.15-1.44.44-.39.29-.76.71-1.1,1.25v5.34c0,.23-.08.42-.25.58s-.36.24-.59.24-.42-.08-.58-.24-.24-.35-.24-.58v-4.8c0-.79-.14-1.36-.42-1.71-.28-.34-.74-.52-1.38-.52-.57,0-1.05.15-1.44.44-.39.29-.76.71-1.1,1.25v5.34c0,.23-.08.42-.25.58s-.36.24-.59.24-.42-.08-.58-.24Z" style="fill:#d9bb86; stroke-width:0px;"/><path d="m120.24,138.18c-.26-.25-.37-.65-.34-1.21v-5.59c0-.58.12-1,.37-1.26.25-.26.65-.37,1.21-.34h2.06v-1.37h-6.71c-.53,0-.8-.23-.8-.69s.27-.68.8-.68h6.71v-.85c0-.44.25-.66.75-.66s.77.22.77.66v.85h6.16c.57,0,.85.22.85.68s-.28.69-.85.69h-6.16v1.37h3.58c.58,0,1,.13,1.26.38.26.25.37.66.34,1.22v5.59c0,.57-.13.99-.38,1.25-.26.26-.66.37-1.22.34h-7.15c-.57,0-.98-.12-1.25-.37Zm-3.45-6.78c0-.6.25-.91.77-.91s.77.3.77.91v7.62c0,.52.27.78.8.77h12.24c.55,0,.82.23.82.69,0,.44-.27.66-.82.66h-12.71c-.66,0-1.15-.14-1.46-.43-.31-.29-.44-.74-.41-1.37v-7.94Zm11.98.89v-.73c0-.34-.19-.53-.57-.55h-6.34c-.36,0-.55.18-.57.55v.73h7.47Zm0,2.46v-1.28h-7.47v1.28h7.47Zm-6.91,2.58h6.34c.36,0,.55-.18.57-.55v-.85h-7.47v.85c0,.34.19.53.57.55Z" style="fill:#d9bb86; stroke-width:0px;"/><path d="m134.62,133.9c1.34-1.42,2.31-2.68,2.9-3.77.2-.34.44-.52.71-.52.49,0,.73.22.73.66,0,.26-.36.87-1.07,1.83l-.3.39v8.45c0,.56-.24.84-.71.84s-.69-.28-.69-.84v-6.66c-.65.81-1.13,1.21-1.42,1.21-.42,0-.62-.25-.62-.75,0-.21.16-.5.48-.85Zm.12-5.8c.9-.59,1.8-1.32,2.69-2.19.25-.25.48-.37.69-.37.5,0,.75.23.75.69,0,.34-.58,1-1.73,1.98s-1.91,1.46-2.28,1.46c-.45,0-.68-.25-.68-.76,0-.29.18-.55.55-.8Zm3.81,12.4c0-.45.28-.68.84-.68h4.4v-3.03h-3.74c-.53,0-.8-.23-.8-.69s.27-.68.8-.68h8.95c.55,0,.82.23.82.68s-.27.69-.82.69h-3.7v3.03h4.25c.57,0,.85.23.85.68s-.28.69-.85.69h-10.16c-.56,0-.84-.23-.84-.69Zm1.6-14.2h8.97c.56,0,.84.23.84.69s-.28.69-.84.69h-8.97c-.53,0-.8-.23-.8-.69s.27-.69.8-.69Zm-.45,4.94c.06-.2.13-.38.2-.56.06-.18.12-.31.15-.41l.57-1.46c.18-.46.44-.69.8-.69.49,0,.73.21.73.64,0,.09-.06.27-.17.52-.11.25-.25.54-.42.89-.42.83-.62,1.33-.62,1.5,0,.08.07.24.22.46.15.23.34.49.56.8.5.69.75,1.2.75,1.53,0,.17-.06.3-.18.41-.12.11-.29.16-.52.16-.2,0-.37-.06-.52-.18-.14-.12-.28-.31-.43-.57-.42-.77-.71-1.33-.89-1.69-.23-.43-.34-.74-.34-.92,0-.08.03-.22.1-.42Zm3.92-1l.52-1.33c.2-.52.49-.78.85-.78.47,0,.71.21.71.62,0,.18-.2.66-.6,1.44-.4.77-.61,1.24-.61,1.41,0,.14.36.74,1.07,1.8.31.45.46.77.46.94,0,.21-.06.38-.18.49-.12.11-.28.17-.5.17s-.39-.06-.53-.17c-.14-.11-.28-.29-.41-.54l-.2-.36-.73-1.46c-.21-.43-.32-.7-.32-.82s.15-.59.46-1.41Zm3.27.83c.09-.25.15-.42.17-.49.12-.31.21-.55.28-.73.21-.57.33-.87.34-.91.2-.54.5-.82.89-.82.47,0,.71.21.71.64,0,.18-.2.64-.59,1.39-.39.76-.59,1.23-.59,1.42,0,.17.15.46.46.87.74,1.01,1.1,1.62,1.1,1.83,0,.49-.26.73-.77.73-.14,0-.29-.08-.44-.23s-.31-.39-.49-.69c-.14-.26-.25-.45-.32-.55-.08-.17-.17-.33-.27-.5-.09-.17-.19-.34-.28-.52-.24-.45-.36-.75-.36-.91,0-.11.04-.29.13-.54Z" style="fill:#d9bb86; stroke-width:0px;"/><path d="m152.88,129.89c0-.45.11-.79.34-1.03.23-.24.56-.36,1-.36h.91c.09-.53.21-1.29.34-2.26.02-.21.1-.37.23-.48.13-.11.3-.16.52-.16.59,0,.85.3.77.91-.1.66-.25,1.33-.46,1.99h1.35c.9,0,1.35.46,1.35,1.39l.02,10.13c0,.91-.46,1.37-1.37,1.37h-3.61c-.45,0-.79-.12-1.02-.35-.23-.23-.35-.57-.35-1.02v-10.13Zm4.89,4.11v-3.56c0-.39-.2-.59-.59-.59h-2.26c-.39,0-.59.2-.59.59v3.56h3.44Zm-2.85,6.03h2.26c.39,0,.59-.2.59-.59v-4.13h-3.44v4.13c0,.39.2.59.59.59Zm8.13,1.44c-.14-.12-.21-.3-.21-.55,0-.49.27-.73.82-.73.74,0,1.25-.01,1.55-.04.3-.03.52-.1.68-.2s.28-.3.37-.57c.17-.49.3-1.67.39-3.56s.14-3.68.14-5.38c0-.45-.26-.68-.78-.68h-3.97c-.2.63-.56,1.35-1.09,2.17-.17.27-.37.41-.62.41-.12,0-.24-.04-.37-.11-.24-.13-.36-.31-.36-.55,0-.15.05-.31.14-.48.5-.94.87-1.73,1.1-2.37.3-.78.58-1.66.84-2.63.06-.2.15-.36.28-.47.12-.11.28-.17.45-.17.05,0,.13.01.25.04.36.08.53.3.53.64,0,.12-.02.25-.05.39-.08.34-.18.69-.3,1.02-.12.34-.23.6-.34.79h4.27c1.04,0,1.57.44,1.57,1.32,0,2.23-.06,4.38-.18,6.45s-.32,3.46-.6,4.16c-.21.5-.54.84-.98,1.03s-1.1.29-1.99.29c-.36,0-.63,0-.82-.02-.33-.01-.57-.08-.71-.2Zm-1.62-8.39c.12-.11.27-.17.46-.17s.39.11.6.32c.21.21.49.56.82,1.05.69,1.03,1.03,1.71,1.03,2.05,0,.2-.06.36-.19.48-.12.12-.3.18-.52.18-.19,0-.36-.07-.5-.21-.14-.14-.28-.34-.43-.61-.23-.4-.56-.94-1-1.62l-.25-.39c-.06-.08-.11-.18-.15-.3-.04-.12-.06-.22-.06-.3,0-.2.06-.36.18-.47Z" style="fill:#d9bb86; stroke-width:0px;"/><path d="m172.14,140.69c0-.5.3-.75.91-.75h.93c.43,0,.65-.22.68-.66v-4.09c-1.95.47-3.06.71-3.33.71-.46,0-.69-.27-.69-.8,0-.45.43-.74,1.28-.85.76-.11,1.67-.28,2.74-.52v-2.35c0-.4.05-.74.14-1,.04-.11.12-.22.26-.34.14-.12.35-.28.63-.5l1.39-1.09c.24-.18.36-.31.36-.41,0-.05-.02-.08-.05-.11s-.08-.04-.12-.04h-5.37c-.56,0-.84-.22-.84-.66,0-.24.07-.41.2-.52.14-.11.35-.17.63-.17h6.66c.4,0,.7.06.9.19.2.12.29.32.29.58,0,.39-.93,1.29-2.79,2.71-.56.43-.84.78-.85,1.05v2.31l2.78-.75.32-.04c.21-.02.37.02.48.13.11.11.16.28.16.49,0,.38-.2.63-.61.75l-1.89.53-1.25.28v4.77c.08,1.34-.54,1.97-1.87,1.89h-1.16c-.6,0-.91-.25-.91-.77Zm8.54-14.02c0-.56.25-.84.75-.84s.73.28.73.84v12.26c0,.45.17.7.52.75.26.05.59.07.98.07.68,0,1.15-.11,1.41-.32.15-.12.25-.6.28-1.44.02-.36.09-.62.2-.78.11-.17.28-.25.51-.25.26,0,.45.06.57.17.12.11.18.3.18.56,0,1.28-.14,2.21-.41,2.78-.25.52-1.17.78-2.78.78-1.16,0-1.89-.05-2.17-.16-.51-.2-.77-.67-.77-1.41v-13.01Z" style="fill:#d9bb86; stroke-width:0px;"/></svg>