<?xml version="1.0" encoding="UTF-8"?><svg id="_圖層_1" xmlns="http://www.w3.org/2000/svg" viewBox="0 0 35 35"><defs><style>.cls-1{fill:#2a2b2b;}</style></defs><path class="cls-1" d="m30.63,6.94h-5.18c-.54-3.93-3.91-6.94-7.97-6.94s-7.43,3.02-7.98,6.94h-5.18c-.6,0-1.1.5-1.1,1.11v25.84c0,.61.5,1.1,1.1,1.1h26.3c.61,0,1.1-.49,1.1-1.1V8.06c0-.61-.49-1.11-1.1-1.11Zm-13.15-4.74c2.84,0,5.22,2.04,5.73,4.74h-11.46c.51-2.7,2.89-4.74,5.73-4.74Zm12.04,30.59H5.44V9.16h3.99v3.3c0,.61.5,1.1,1.1,1.1s1.11-.49,1.11-1.1v-3.3h11.68v3.3c0,.61.49,1.1,1.1,1.1s1.1-.49,1.1-1.1v-3.3h4v23.64Z"/></svg>